<?xml version="1.0" encoding="UTF-8" standalone="no"?>
<!-- Created with Inkscape (http://www.inkscape.org/) -->

<svg
   xmlns:dc="http://purl.org/dc/elements/1.1/"
   xmlns:cc="http://creativecommons.org/ns#"
   xmlns:rdf="http://www.w3.org/1999/02/22-rdf-syntax-ns#"
   xmlns:svg="http://www.w3.org/2000/svg"
   xmlns="http://www.w3.org/2000/svg"
   xmlns:sodipodi="http://sodipodi.sourceforge.net/DTD/sodipodi-0.dtd"
   xmlns:inkscape="http://www.inkscape.org/namespaces/inkscape"
   width="210mm"
   height="297mm"
   viewBox="0 0 744.09448819 1052.3622047"
   id="svg2"
   version="1.1"
   inkscape:version="0.91 r13725"
   sodipodi:docname="plastik.svg">
  <defs
     id="defs4" />
  <sodipodi:namedview
     id="base"
     pagecolor="#ffffff"
     bordercolor="#666666"
     borderopacity="1.0"
     inkscape:pageopacity="0.0"
     inkscape:pageshadow="2"
     inkscape:zoom="0.35"
     inkscape:cx="-545.89382"
     inkscape:cy="199.24836"
     inkscape:document-units="px"
     inkscape:current-layer="layer1"
     showgrid="false"
     inkscape:window-width="1366"
     inkscape:window-height="719"
     inkscape:window-x="0"
     inkscape:window-y="25"
     inkscape:window-maximized="1" />
  <metadata
     id="metadata7">
    <rdf:RDF>
      <cc:Work
         rdf:about="">
        <dc:format>image/svg+xml</dc:format>
        <dc:type
           rdf:resource="http://purl.org/dc/dcmitype/StillImage" />
        <dc:title />
      </cc:Work>
    </rdf:RDF>
  </metadata>
  <g
     inkscape:label="Layer 1"
     inkscape:groupmode="layer"
     id="layer1">
    <g
       id="g4247"
       transform="matrix(0.94355408,0,0,0.94355408,48.886241,-64.270963)"
       inkscape:export-filename="/home/salamflamo/Pictures/kanguru-tshirt/plastik.png"
       inkscape:export-xdpi="108"
       inkscape:export-ydpi="108">
      <g
         transform="matrix(1.5453981,0,0,1.5453981,201.76202,-635.6291)"
         id="g4239">
        <path
           inkscape:export-ydpi="108"
           inkscape:export-xdpi="108"
           sodipodi:nodetypes="cccc"
           inkscape:connector-curvature="0"
           id="path4167"
           d="m -127.69547,917.07957 c 117.7417212,-28.4611 140.965071,-50.9793 174.266651,-137.0422 37.47475,-104.6171 88.672709,-107.0556 125.653489,-39.8625 33.80662,60.3451 79.11607,35.8185 76.25867,-8.6657"
           style="fill:none;fill-rule:evenodd;stroke:#fc303f;stroke-width:10.74690437;stroke-linecap:butt;stroke-linejoin:miter;stroke-miterlimit:4;stroke-dasharray:none;stroke-opacity:1" />
        <path
           inkscape:export-ydpi="108"
           inkscape:export-xdpi="108"
           sodipodi:nodetypes="cc"
           inkscape:connector-curvature="0"
           id="path4169"
           d="m 169.56335,769.45377 c 11.32895,49.9444 81.84376,7.2568 84.98602,47.4131"
           style="fill:none;fill-rule:evenodd;stroke:#fc303f;stroke-width:10.74690437;stroke-linecap:butt;stroke-linejoin:miter;stroke-miterlimit:4;stroke-dasharray:none;stroke-opacity:1" />
        <path
           inkscape:export-ydpi="108"
           inkscape:export-xdpi="108"
           sodipodi:nodetypes="cc"
           inkscape:connector-curvature="0"
           id="path4171"
           d="m 61.321071,788.16767 c 0.29471,114.0568 1.64698,114.2658 94.915389,115.802"
           style="fill:none;fill-rule:evenodd;stroke:#fc303f;stroke-width:10.74690437;stroke-linecap:butt;stroke-linejoin:miter;stroke-miterlimit:4;stroke-dasharray:none;stroke-opacity:1" />
        <path
           inkscape:export-ydpi="108"
           inkscape:export-xdpi="108"
           sodipodi:nodetypes="cc"
           inkscape:connector-curvature="0"
           id="path4173"
           d="m 86.149061,810.00907 c 32.734599,1.2255 38.798399,1.6588 38.365109,38.1293"
           style="fill:none;fill-rule:evenodd;stroke:#fc303f;stroke-width:10.74690437;stroke-linecap:butt;stroke-linejoin:miter;stroke-miterlimit:4;stroke-dasharray:none;stroke-opacity:1" />
        <path
           inkscape:export-ydpi="108"
           inkscape:export-xdpi="108"
           inkscape:connector-curvature="0"
           id="path4175"
           d="m 238.79249,657.43017 c -0.27397,-0.01 -0.54828,0.01 -0.82282,0.054 -10.80314,1.9633 -1.06835,24.3235 1.42172,40.8592 -11.92414,-8.7555 -29.05371,-19.4663 -34.55268,-12.8162 -6.06882,7.3392 24.18526,30.7486 33.20976,37.4731 1.47471,5.8742 7.53155,9.2344 25.59995,10.2424 51.44962,3.0763 60.5551,-35.3325 0,-34.6635 -1.03135,0.071 -2.02284,0.1639 -2.97733,0.2778 -4.35735,-14.5377 -12.92429,-41.1901 -21.8786,-41.4267 z"
           style="opacity:1;fill:none;fill-opacity:1;stroke:#fc303f;stroke-width:10.74690437;stroke-miterlimit:4;stroke-dasharray:none;stroke-opacity:1" />
        <circle
           inkscape:export-ydpi="108"
           inkscape:export-xdpi="108"
           r="5.3417583"
           cy="711.28699"
           cx="263.79071"
           id="circle4177"
           style="opacity:1;fill:#fc303f;fill-opacity:1;stroke:none;stroke-width:35.43307114;stroke-miterlimit:4;stroke-dasharray:none;stroke-opacity:1" />
      </g>
    </g>
    <text
       inkscape:export-ydpi="108"
       inkscape:export-xdpi="108"
       sodipodi:linespacing="125%"
       id="text4179"
       y="781.42767"
       x="92.058113"
       style="font-style:normal;font-weight:normal;font-size:177.3633728px;line-height:125%;font-family:sans-serif;letter-spacing:0px;word-spacing:0px;opacity:1;fill:#fc303f;fill-opacity:1;stroke:#ffffff;stroke-width:5.6613245;stroke-linecap:butt;stroke-linejoin:miter;stroke-miterlimit:4;stroke-dasharray:none;stroke-opacity:1"
       xml:space="preserve"
       inkscape:export-filename="/home/salamflamo/Pictures/kanguru-tshirt/plastik.png"><tspan
         style="font-style:normal;font-variant:normal;font-weight:normal;font-stretch:normal;font-family:'Birthday Boy';-inkscape-font-specification:'Birthday Boy';fill:#fc303f;fill-opacity:1;stroke:#ffffff;stroke-width:5.6613245;stroke-miterlimit:4;stroke-dasharray:none;stroke-opacity:1"
         y="781.42767"
         x="92.058113"
         id="tspan4181"
         sodipodi:role="line">KANGURU</tspan></text>
    <g
       id="g4314"
       transform="matrix(0.7983472,0,0,0.7983472,159.8327,159.05398)"
       inkscape:export-filename="/home/salamflamo/Pictures/kanguru-tshirt/plastik.png"
       inkscape:export-xdpi="108"
       inkscape:export-ydpi="108">
      <g
         id="g4284">
        <rect
           ry="5.3142581"
           rx="5.5334315"
           y="912.01587"
           x="59.760315"
           height="55.439041"
           width="55.439041"
           id="rect4251"
           style="opacity:0.94199997;fill:#fc303f;fill-opacity:1;stroke:#ececec;stroke-width:0.24695574;stroke-miterlimit:4;stroke-dasharray:none;stroke-opacity:1" />
        <g
           transform="matrix(0.17326074,0,0,0.17326074,-354.9723,891.93337)"
           id="g4253">
          <path
             style="opacity:0.94199997;fill:none;fill-opacity:1;stroke:#ffffff;stroke-width:18;stroke-miterlimit:4;stroke-dasharray:none;stroke-opacity:1"
             d="m 2558.1333,158.53414 a 111.71429,112.12089 0 0 0 -111.7148,112.12141 111.71429,112.12089 0 0 0 16.3838,58.25759 l -20.0218,59.22938 60.6832,-19.77469 a 111.71429,112.12089 0 0 0 54.6696,14.40903 111.71429,112.12089 0 0 0 111.7147,-112.12131 111.71429,112.12089 0 0 0 -111.7147,-112.12141 z"
             id="path4255"
             inkscape:connector-curvature="0" />
          <path
             style="fill:#ffffff;fill-rule:evenodd;stroke:none;stroke-width:1px;stroke-linecap:butt;stroke-linejoin:miter;stroke-opacity:1"
             d="m 2524.3895,208.59353 c -1.0239,-0.0785 -13.3892,0.31533 -13.3892,0.31533 -12.2739,9.84396 -18.0861,19.60483 -16.6951,35.20245 0.2363,2.36264 0.8651,5.35497 1.1801,6.85136 3.2804,11.98327 10.3533,22.17414 17.2481,32.28933 l 8.1899,10.8292 c 12.3761,13.64636 26.7121,25.21551 41.5683,32.49414 8.4211,4.40492 20.5978,9.68898 29.1471,10.17622 13.3507,0.50021 28.038,-7.99123 33.0749,-19.14484 0,0 1.4316,-11.03208 1.3006,-12.05057 -7.1219,-5.24217 -25.2599,-18.22214 -33.7329,-16.94142 -17.0598,17.38623 -13.2061,20.02742 -31.099,10.56733 -5.5843,-3.72769 -9.9421,-7.02195 -14.6675,-11.98689 l -0.1343,0.12402 c -5.8648,-5.40534 -18.4731,-20.89862 -19.5497,-28.00833 0.4854,-1.86252 2.438,-3.10223 3.7797,-4.41022 3.2837,-3.83645 7.3743,-7.40961 8.8071,-12.398 -2.7137,-10.92164 -8.2411,-21.42537 -12.43,-31.94013 0,0 -1.5741,-1.89066 -2.5979,-1.96916 z"
             id="path4257"
             inkscape:connector-curvature="0"
             sodipodi:nodetypes="cccccccccccccccccccc" />
        </g>
      </g>
      <text
         xml:space="preserve"
         style="font-style:normal;font-weight:normal;font-size:40px;line-height:125%;font-family:sans-serif;letter-spacing:0px;word-spacing:0px;fill:#fc303f;fill-opacity:1;stroke:#ffffff;stroke-width:1.5;stroke-linecap:butt;stroke-linejoin:miter;stroke-miterlimit:4;stroke-dasharray:none;stroke-opacity:1"
         x="141.05566"
         y="956.57043"
         id="text4276"
         sodipodi:linespacing="125%"><tspan
           id="tspan4278"
           sodipodi:role="line"
           x="141.05566"
           y="956.57043"
           style="font-style:normal;font-variant:normal;font-weight:normal;font-stretch:normal;font-size:70px;font-family:'Birthday Boy';-inkscape-font-specification:'Birthday Boy';fill:#fc303f;fill-opacity:1;stroke:#ffffff;stroke-width:1.5;stroke-miterlimit:4;stroke-dasharray:none;stroke-opacity:1">0859 43333827</tspan></text>
    </g>
    <g
       id="g4368"
       transform="translate(6.2150394,0)"
       inkscape:export-filename="/home/salamflamo/Pictures/kanguru-tshirt/plastik.png"
       inkscape:export-xdpi="108"
       inkscape:export-ydpi="108">
      <g
         transform="matrix(0.7983472,0,0,0.7983472,5.1121497,197.62071)"
         id="g4353">
        <text
           sodipodi:linespacing="125%"
           id="text4147"
           y="817.36902"
           x="102.48425"
           style="font-style:normal;font-weight:normal;font-size:40px;line-height:125%;font-family:sans-serif;letter-spacing:0px;word-spacing:0px;fill:#fc303f;fill-opacity:1;stroke:#ffffff;stroke-width:1.5;stroke-linecap:butt;stroke-linejoin:miter;stroke-miterlimit:4;stroke-dasharray:none;stroke-opacity:1"
           xml:space="preserve"><tspan
             style="font-style:normal;font-variant:normal;font-weight:normal;font-stretch:normal;font-size:70px;font-family:'Birthday Boy';-inkscape-font-specification:'Birthday Boy';fill:#fc303f;fill-opacity:1;stroke:#ffffff;stroke-width:1.5;stroke-miterlimit:4;stroke-dasharray:none;stroke-opacity:1"
             y="817.36902"
             x="102.48425"
             sodipodi:role="line"
             id="tspan4155">@kangurutshirt</tspan></text>
        <rect
           ry="5.314229"
           rx="5.5334015"
           y="773.77588"
           x="25.474724"
           height="55.43874"
           width="55.43874"
           id="rect4223"
           style="opacity:0.94199997;fill:#fc303f;fill-opacity:1;stroke:#ececec;stroke-width:0.24695438;stroke-miterlimit:4;stroke-dasharray:none;stroke-opacity:1" />
        <rect
           style="opacity:0.94199997;fill:none;fill-opacity:1;stroke:#ffffff;stroke-width:3.46519589;stroke-miterlimit:4;stroke-dasharray:none;stroke-opacity:1"
           id="rect4225"
           width="42.062389"
           height="42.062389"
           x="32.162956"
           y="780.46405"
           rx="11.457422"
           ry="11.457422" />
        <circle
           r="9.9005594"
           cy="801.49524"
           cx="53.194145"
           id="circle4227"
           style="opacity:0.94199997;fill:none;fill-opacity:1;stroke:#ffffff;stroke-width:3.46519589;stroke-miterlimit:4;stroke-dasharray:none;stroke-opacity:1" />
        <circle
           style="opacity:0.94199997;fill:#ffffff;fill-opacity:1;stroke:#ffffff;stroke-width:0.60809046;stroke-miterlimit:4;stroke-dasharray:none;stroke-opacity:1"
           id="circle4229"
           cx="65.445427"
           cy="789.06891"
           r="2.1023734" />
      </g>
      <g
         transform="matrix(0.7983472,0,0,0.7983472,-27.145949,199.23358)"
         id="g4361">
        <g
           id="g4349">
          <rect
             ry="5.3142581"
             rx="5.5334315"
             y="771.7113"
             x="504.32599"
             height="55.439041"
             width="55.439041"
             id="rect4233"
             style="opacity:0.94199997;fill:#fc303f;fill-opacity:1;stroke:#ececec;stroke-width:0.24695574;stroke-miterlimit:4;stroke-dasharray:none;stroke-opacity:1" />
          <path
             style="fill:#ffffff;fill-rule:evenodd;stroke:none;stroke-width:1px;stroke-linecap:butt;stroke-linejoin:miter;stroke-opacity:1"
             d="m 530.51638,805.37454 -4.86937,0 0,-8.8692 5.10124,0 0,-7.13012 c 0,0 0.058,-0.84055 0.23186,-1.56515 0.1739,-0.72461 0.37681,-1.62312 0.49274,-1.82601 0.11594,-0.20289 0.31883,-0.72461 0.55072,-1.1014 0.23186,-0.37679 0.75359,-1.24633 1.01445,-1.56516 0.26082,-0.31882 0.6956,-0.78257 1.04341,-1.04343 0.34782,-0.26086 0.86954,-0.66664 1.27532,-0.89851 0.40577,-0.23188 1.07241,-0.57969 1.42022,-0.72461 0.34783,-0.14492 1.68108,-0.52171 1.68108,-0.52171 l 1.18837,-0.11594 9.41991,0 0,8.60833 -5.9418,0 c 0,0 -0.49272,-0.029 -0.84052,0.26085 -0.34784,0.28985 -0.63767,0.52171 -0.72461,0.69563 -0.087,0.1739 -0.26088,0.37679 -0.28983,0.55069 -0.029,0.17391 -0.058,0.3768 -0.058,0.3768 l 0,5.99974 7.99962,0 -0.86951,8.8692 -7.18812,0 0,21.98757 -10.6372,0 z"
             id="path4235"
             inkscape:connector-curvature="0"
             sodipodi:nodetypes="cccccsscccsccccccscccccccccc" />
        </g>
        <text
           xml:space="preserve"
           style="font-style:normal;font-weight:normal;font-size:40px;line-height:125%;font-family:sans-serif;letter-spacing:0px;word-spacing:0px;fill:#fc303f;fill-opacity:1;stroke:#ffffff;stroke-width:1.5;stroke-linecap:butt;stroke-linejoin:miter;stroke-miterlimit:4;stroke-dasharray:none;stroke-opacity:1"
           x="580.28638"
           y="815.34875"
           id="text4345"
           sodipodi:linespacing="125%"><tspan
             id="tspan4347"
             sodipodi:role="line"
             x="580.28638"
             y="815.34875"
             style="font-style:normal;font-variant:normal;font-weight:normal;font-stretch:normal;font-size:70px;font-family:'Birthday Boy';-inkscape-font-specification:'Birthday Boy';fill:#fc303f;fill-opacity:1;stroke:#ffffff;stroke-width:1.5;stroke-miterlimit:4;stroke-dasharray:none;stroke-opacity:1">@kangurutshirt</tspan></text>
      </g>
    </g>
    <rect
       style="opacity:1;fill:#ffffff;fill-opacity:1;stroke:none;stroke-width:3;stroke-miterlimit:4;stroke-dasharray:none;stroke-opacity:1"
       id="rect4306"
       width="808.57141"
       height="748.57141"
       x="-808.03558"
       y="234.8642"
       rx="4.4175801"
       ry="4.2426"
       inkscape:export-filename="/home/salamflamo/Pictures/kanguru-tshirt/plastik2.png"
       inkscape:export-xdpi="108"
       inkscape:export-ydpi="108" />
    <g
       id="g4280"
       inkscape:export-filename="/home/salamflamo/Pictures/kanguru-tshirt/plastik2.png"
       inkscape:export-xdpi="108"
       inkscape:export-ydpi="108">
      <path
         inkscape:export-ydpi="108"
         inkscape:export-xdpi="108"
         sodipodi:nodetypes="cccc"
         inkscape:connector-curvature="0"
         id="path4170"
         d="m -722.73881,673.2335 c 171.68705,-41.50103 205.55057,-74.33632 254.10983,-199.83037 54.64443,-152.54917 129.29959,-156.10491 183.22373,-58.12617 49.29569,87.99321 115.36442,52.22934 111.19785,-12.63604"
         style="fill:none;fill-rule:evenodd;stroke:#000000;stroke-width:15.67077827;stroke-linecap:butt;stroke-linejoin:miter;stroke-miterlimit:4;stroke-dasharray:none;stroke-opacity:1" />
      <path
         inkscape:export-ydpi="108"
         inkscape:export-xdpi="108"
         sodipodi:nodetypes="cc"
         inkscape:connector-curvature="0"
         id="path4172"
         d="m -289.2859,457.97047 c 16.5195,72.82727 119.34185,10.58163 123.92378,69.13621"
         style="fill:none;fill-rule:evenodd;stroke:#000000;stroke-width:15.67077827;stroke-linecap:butt;stroke-linejoin:miter;stroke-miterlimit:4;stroke-dasharray:none;stroke-opacity:1" />
      <path
         inkscape:export-ydpi="108"
         inkscape:export-xdpi="108"
         sodipodi:nodetypes="cc"
         inkscape:connector-curvature="0"
         id="path4174"
         d="m -447.12119,485.25846 c 0.42974,166.31383 2.40158,166.61858 138.40246,168.85862"
         style="fill:none;fill-rule:evenodd;stroke:#000000;stroke-width:15.67077827;stroke-linecap:butt;stroke-linejoin:miter;stroke-miterlimit:4;stroke-dasharray:none;stroke-opacity:1" />
      <path
         inkscape:export-ydpi="108"
         inkscape:export-xdpi="108"
         sodipodi:nodetypes="cc"
         inkscape:connector-curvature="0"
         id="path4176"
         d="m -410.91784,517.10686 c 47.7325,1.78699 56.57454,2.41881 55.94273,55.59888"
         style="fill:none;fill-rule:evenodd;stroke:#000000;stroke-width:15.67077827;stroke-linecap:butt;stroke-linejoin:miter;stroke-miterlimit:4;stroke-dasharray:none;stroke-opacity:1" />
      <path
         inkscape:export-ydpi="108"
         inkscape:export-xdpi="108"
         inkscape:connector-curvature="0"
         id="path4178"
         d="m -188.33827,294.62139 c -0.3995,-0.0146 -0.79949,0.0146 -1.19981,0.0787 -15.75278,2.86282 -1.55783,35.46772 2.0731,59.57953 -17.38738,-12.76698 -42.36515,-28.38511 -50.38356,-18.68816 -8.84936,10.70178 35.26614,44.83659 48.42536,54.64203 2.15037,8.56556 10.98226,13.46529 37.329,14.93512 75.022119,4.48576 88.299427,-51.52067 0,-50.54516 -1.50388,0.10353 -2.94964,0.239 -4.34145,0.40508 -6.35374,-21.19839 -18.84577,-60.06203 -31.90264,-60.40703 z"
         style="opacity:1;fill:none;fill-opacity:1;stroke:#000000;stroke-width:15.67077827;stroke-miterlimit:4;stroke-dasharray:none;stroke-opacity:1" />
      <circle
         inkscape:export-ydpi="108"
         inkscape:export-xdpi="108"
         r="7.7891741"
         cy="373.15359"
         cx="-151.8867"
         id="circle4180"
         style="opacity:1;fill:#000000;fill-opacity:1;stroke:none;stroke-width:35.43307114;stroke-miterlimit:4;stroke-dasharray:none;stroke-opacity:1" />
      <text
         inkscape:export-ydpi="108"
         inkscape:export-xdpi="108"
         sodipodi:linespacing="125%"
         id="text4182"
         y="781.42767"
         x="-683.73901"
         style="font-style:normal;font-weight:normal;font-size:177.3633728px;line-height:125%;font-family:sans-serif;letter-spacing:0px;word-spacing:0px;opacity:1;fill:#000000;fill-opacity:1;stroke:#ffffff;stroke-width:5.6613245;stroke-linecap:butt;stroke-linejoin:miter;stroke-miterlimit:4;stroke-dasharray:none;stroke-opacity:1;"
         xml:space="preserve"
         inkscape:export-filename="/home/salamflamo/Pictures/kanguru-tshirt/plastik.png"><tspan
           style="font-style:normal;font-variant:normal;font-weight:normal;font-stretch:normal;font-family:'Birthday Boy';-inkscape-font-specification:'Birthday Boy';fill:#000000;fill-opacity:1;stroke:#ffffff;stroke-width:5.6613245;stroke-miterlimit:4;stroke-dasharray:none;stroke-opacity:1;"
           y="781.42767"
           x="-683.73901"
           id="tspan4184"
           sodipodi:role="line">KANGURU</tspan></text>
      <rect
         ry="4.2426229"
         rx="4.4175997"
         y="887.1593"
         x="-568.25494"
         height="44.259602"
         width="44.259602"
         id="rect4190"
         style="opacity:1;fill:#000000;fill-opacity:1;stroke:#ececec;stroke-width:0.19715641;stroke-miterlimit:4;stroke-dasharray:none;stroke-opacity:1" />
      <g
         transform="matrix(0.13832223,0,0,0.13832223,-899.35559,871.12649)"
         id="g4192">
        <path
           style="opacity:0.94199997;fill:none;fill-opacity:1;stroke:#ffffff;stroke-width:18;stroke-miterlimit:4;stroke-dasharray:none;stroke-opacity:1"
           d="m 2558.1333,158.53414 a 111.71429,112.12089 0 0 0 -111.7148,112.12141 111.71429,112.12089 0 0 0 16.3838,58.25759 l -20.0218,59.22938 60.6832,-19.77469 a 111.71429,112.12089 0 0 0 54.6696,14.40903 111.71429,112.12089 0 0 0 111.7147,-112.12131 111.71429,112.12089 0 0 0 -111.7147,-112.12141 z"
           id="path4194"
           inkscape:connector-curvature="0" />
        <path
           style="fill:#ffffff;fill-rule:evenodd;stroke:none;stroke-width:1px;stroke-linecap:butt;stroke-linejoin:miter;stroke-opacity:1"
           d="m 2524.3895,208.59353 c -1.0239,-0.0785 -13.3892,0.31533 -13.3892,0.31533 -12.2739,9.84396 -18.0861,19.60483 -16.6951,35.20245 0.2363,2.36264 0.8651,5.35497 1.1801,6.85136 3.2804,11.98327 10.3533,22.17414 17.2481,32.28933 l 8.1899,10.8292 c 12.3761,13.64636 26.7121,25.21551 41.5683,32.49414 8.4211,4.40492 20.5978,9.68898 29.1471,10.17622 13.3507,0.50021 28.038,-7.99123 33.0749,-19.14484 0,0 1.4316,-11.03208 1.3006,-12.05057 -7.1219,-5.24217 -25.2599,-18.22214 -33.7329,-16.94142 -17.0598,17.38623 -13.2061,20.02742 -31.099,10.56733 -5.5843,-3.72769 -9.9421,-7.02195 -14.6675,-11.98689 l -0.1343,0.12402 c -5.8648,-5.40534 -18.4731,-20.89862 -19.5497,-28.00833 0.4854,-1.86252 2.438,-3.10223 3.7797,-4.41022 3.2837,-3.83645 7.3743,-7.40961 8.8071,-12.398 -2.7137,-10.92164 -8.2411,-21.42537 -12.43,-31.94013 0,0 -1.5741,-1.89066 -2.5979,-1.96916 z"
           id="path4196"
           inkscape:connector-curvature="0"
           sodipodi:nodetypes="cccccccccccccccccccc" />
      </g>
      <text
         sodipodi:linespacing="125%"
         id="text4198"
         y="922.72931"
         x="-503.35306"
         style="font-style:normal;font-weight:normal;font-size:31.93388748px;line-height:125%;font-family:sans-serif;letter-spacing:0px;word-spacing:0px;fill:#000000;fill-opacity:1;stroke:#ffffff;stroke-width:1.19752085;stroke-linecap:butt;stroke-linejoin:miter;stroke-miterlimit:4;stroke-dasharray:none;stroke-opacity:1;"
         xml:space="preserve"><tspan
           style="font-style:normal;font-variant:normal;font-weight:normal;font-stretch:normal;font-size:55.88430405px;font-family:'Birthday Boy';-inkscape-font-specification:'Birthday Boy';fill:#000000;fill-opacity:1;stroke:#ffffff;stroke-width:1.19752085;stroke-miterlimit:4;stroke-dasharray:none;stroke-opacity:1;"
           y="922.72931"
           x="-503.35306"
           sodipodi:role="line"
           id="tspan4200">0859 43333827</tspan></text>
      <text
         sodipodi:linespacing="125%"
         id="text4206"
         y="850.16498"
         x="-682.65192"
         style="font-style:normal;font-weight:normal;font-size:31.93388748px;line-height:125%;font-family:sans-serif;letter-spacing:0px;word-spacing:0px;fill:#000000;fill-opacity:1;stroke:#ffffff;stroke-width:1.19752085;stroke-linecap:butt;stroke-linejoin:miter;stroke-miterlimit:4;stroke-dasharray:none;stroke-opacity:1;"
         xml:space="preserve"><tspan
           style="font-style:normal;font-variant:normal;font-weight:normal;font-stretch:normal;font-size:55.88430405px;font-family:'Birthday Boy';-inkscape-font-specification:'Birthday Boy';fill:#000000;fill-opacity:1;stroke:#ffffff;stroke-width:1.19752085;stroke-miterlimit:4;stroke-dasharray:none;stroke-opacity:1;"
           y="850.16498"
           x="-682.65192"
           sodipodi:role="line"
           id="tspan4208">@kangurutshirt</tspan></text>
      <rect
         ry="4.2426"
         rx="4.4175754"
         y="815.36249"
         x="-744.13226"
         height="44.259361"
         width="44.259361"
         id="rect4210"
         style="opacity:1;fill:#000000;fill-opacity:1;stroke:#ececec;stroke-width:0.19715534;stroke-miterlimit:4;stroke-dasharray:none;stroke-opacity:1" />
      <rect
         style="opacity:0.94199997;fill:none;fill-opacity:1;stroke:#ffffff;stroke-width:2.76642942;stroke-miterlimit:4;stroke-dasharray:none;stroke-opacity:1"
         id="rect4212"
         width="33.580391"
         height="33.580391"
         x="-738.79272"
         y="820.70203"
         rx="9.1470013"
         ry="9.1470013" />
      <circle
         r="7.9040837"
         cy="837.49219"
         cx="-722.00256"
         id="circle4214"
         style="opacity:0.94199997;fill:none;fill-opacity:1;stroke:#ffffff;stroke-width:2.76642942;stroke-miterlimit:4;stroke-dasharray:none;stroke-opacity:1" />
      <circle
         style="opacity:0.94199997;fill:#ffffff;fill-opacity:1;stroke:#ffffff;stroke-width:0.48546731;stroke-miterlimit:4;stroke-dasharray:none;stroke-opacity:1"
         id="circle4216"
         cx="-712.2218"
         cy="827.57166"
         r="1.6784239" />
      <rect
         style="opacity:1;fill:#000000;fill-opacity:1;stroke:#ececec;stroke-width:0.19715641;stroke-miterlimit:4;stroke-dasharray:none;stroke-opacity:1"
         id="rect4222"
         width="44.259602"
         height="44.259602"
         x="-394.10083"
         y="815.32715"
         rx="4.4175997"
         ry="4.2426229" />
      <path
         sodipodi:nodetypes="cccccsscccsccccccscccccccccc"
         inkscape:connector-curvature="0"
         id="path4224"
         d="m -373.19179,842.20209 -3.88745,0 0,-7.0807 4.07256,0 0,-5.69231 c 0,0 0.0463,-0.67105 0.1851,-1.24954 0.13884,-0.57849 0.30083,-1.29581 0.39338,-1.45779 0.0926,-0.16197 0.25454,-0.57849 0.43967,-0.8793 0.1851,-0.30081 0.60162,-0.995 0.80988,-1.24954 0.20823,-0.25453 0.55533,-0.62476 0.833,-0.83302 0.27769,-0.20825 0.6942,-0.53221 1.01815,-0.71732 0.32395,-0.18512 0.85616,-0.46279 1.13383,-0.57849 0.27769,-0.1157 1.34209,-0.41651 1.34209,-0.41651 l 0.94873,-0.0926 7.52036,0 0,6.87244 -4.74362,0 c 0,0 -0.39336,-0.0231 -0.67103,0.20825 -0.2777,0.2314 -0.50908,0.4165 -0.57849,0.55535 -0.0695,0.13884 -0.20827,0.30081 -0.23138,0.43965 -0.0232,0.13884 -0.0463,0.30081 -0.0463,0.30081 l 0,4.78988 6.38648,0 -0.69418,7.0807 -5.73861,0 0,17.55371 -8.49218,0 z"
         style="fill:#ffffff;fill-rule:evenodd;stroke:none;stroke-width:1px;stroke-linecap:butt;stroke-linejoin:miter;stroke-opacity:1" />
      <text
         xml:space="preserve"
         style="font-style:normal;font-weight:normal;font-size:31.93388748px;line-height:125%;font-family:sans-serif;letter-spacing:0px;word-spacing:0px;fill:#000000;fill-opacity:1;stroke:#ffffff;stroke-width:1.19752085;stroke-linecap:butt;stroke-linejoin:miter;stroke-miterlimit:4;stroke-dasharray:none;stroke-opacity:1;"
         x="-333.45807"
         y="850.16498"
         id="text4226"
         sodipodi:linespacing="125%"><tspan
           id="tspan4228"
           sodipodi:role="line"
           x="-333.45807"
           y="850.16498"
           style="font-style:normal;font-variant:normal;font-weight:normal;font-stretch:normal;font-size:55.88430405px;font-family:'Birthday Boy';-inkscape-font-specification:'Birthday Boy';fill:#000000;fill-opacity:1;stroke:#ffffff;stroke-width:1.19752085;stroke-miterlimit:4;stroke-dasharray:none;stroke-opacity:1;">@kangurutshirt</tspan></text>
    </g>
  </g>
</svg>
