<?xml version="1.0" encoding="UTF-8" standalone="no"?>
<!-- Created with Inkscape (http://www.inkscape.org/) -->

<svg
   xmlns:dc="http://purl.org/dc/elements/1.1/"
   xmlns:cc="http://creativecommons.org/ns#"
   xmlns:rdf="http://www.w3.org/1999/02/22-rdf-syntax-ns#"
   xmlns:svg="http://www.w3.org/2000/svg"
   xmlns="http://www.w3.org/2000/svg"
   xmlns:sodipodi="http://sodipodi.sourceforge.net/DTD/sodipodi-0.dtd"
   xmlns:inkscape="http://www.inkscape.org/namespaces/inkscape"
   width="210mm"
   height="297mm"
   viewBox="0 0 744.09448819 1052.3622047"
   id="svg4194"
   version="1.1"
   inkscape:version="0.91 r13725"
   sodipodi:docname="sablon.svg">
  <defs
     id="defs4196" />
  <sodipodi:namedview
     id="base"
     pagecolor="#ffffff"
     bordercolor="#666666"
     borderopacity="1.0"
     inkscape:pageopacity="0.0"
     inkscape:pageshadow="2"
     inkscape:zoom="0.49497474"
     inkscape:cx="609.92038"
     inkscape:cy="566.47366"
     inkscape:document-units="px"
     inkscape:current-layer="layer1"
     showgrid="false"
     inkscape:window-width="1366"
     inkscape:window-height="719"
     inkscape:window-x="0"
     inkscape:window-y="25"
     inkscape:window-maximized="1"
     showguides="true"
     inkscape:guide-bbox="true" />
  <metadata
     id="metadata4199">
    <rdf:RDF>
      <cc:Work
         rdf:about="">
        <dc:format>image/svg+xml</dc:format>
        <dc:type
           rdf:resource="http://purl.org/dc/dcmitype/StillImage" />
        <dc:title />
      </cc:Work>
    </rdf:RDF>
  </metadata>
  <g
     inkscape:label="Layer 1"
     inkscape:groupmode="layer"
     id="layer1">
    <g
       id="g4713"
       transform="translate(3.2579292,1.5916245)"
       inkscape:export-filename="/home/salamflamo/Pictures/kanguru-tshirt/sablon/sablonfull.png"
       inkscape:export-xdpi="108"
       inkscape:export-ydpi="108">
      <path
         sodipodi:nodetypes="ccccccccccccsssccccscccccsccccccccccccccscssscsccsscccsccccccscsscsssscccsssccscssccsssssscc"
         inkscape:connector-curvature="0"
         id="path4146"
         d="m 61.07143,295.5765 c 0,0 0.96418,-1.1305 3.11075,-1.88811 28.40825,-6.11138 65.57,-21.23776 63.38707,-53.66436 -0.35787,-8.49512 -0.13719,-17.19537 2.27285,-25.38008 4.48381,-15.13904 18.30515,-33.6998 30.80965,-39.26968 6.2949,-9.34454 11.82034,-19.117 17.80394,-28.66308 0,0 4.29315,-7.70241 4.67195,-9.59645 1.9641,-7.44081 5.73569,-14.21576 9.09138,-21.08693 l 4.04061,-7.44988 c -3.99338,-6.37785 -7.87374,-13.15731 -9.84899,-20.45559 -2.03795,-9.87812 -0.69541,-18.19364 3.283,-27.14785 l 2.98493,-6.29085 c 0,0 -1.78538,-1.09589 -4.31076,-2.98992 -2.52538,-1.89404 -7.3236,-7.70242 -8.14435,-8.83884 -0.82075,-1.13642 -5.05077,-8.27062 -5.68211,-11.55362 -0.63135,-3.28299 -1.19956,-11.55362 -1.19956,-11.55362 0,0 7.57615,-1.89403 13.63706,-0.3788 8.77791,1.9795 14.47696,7.64193 17.74081,15.9099 0.75761,2.08344 2.39911,9.40704 2.39911,9.40704 0,0 3.09359,-1.95717 6.12405,-2.65165 3.03045,-0.69448 4.98763,-1.26269 4.98763,-1.26269 -0.75173,-6.42577 -1.76692,-13.46147 0.82075,-19.63483 4.42119,-8.78386 11.36825,-11.50229 17.99334,-13.5108 6.77725,10.17653 8.71051,23.42018 0.69448,32.82996 -0.69448,1.19956 -1.19956,1.6415 -1.19956,1.6415 0,0 6.12405,1.8309 9.15451,4.92449 3.03046,3.09359 8.7757,9.28078 10.29093,10.79601 4.87534,7.85968 15.22729,9.88784 20.89753,16.41498 4.03139,4.62649 6.39906,9.2607 5.55584,15.46796 -0.90337,7.9843 -5.73202,16.42566 -11.99557,20.39245 -7.72412,4.07299 -16.58614,6.01541 -25.31694,5.05076 -1.8309,-0.25253 -8.33376,-1.07328 -8.33376,-1.07328 l 8.83883,21.84454 c 11.41453,-2.97477 23.91117,-7.83287 35.41848,-6.94479 5.58859,0.31487 10.33844,3.51065 12.56377,8.64943 0.88388,2.20971 1.45209,3.53553 1.38896,5.42957 -1.70155,8.1211 -7.85112,8.64187 -11.93243,3.8512 -1.89403,-2.33597 -2.90419,-5.80837 -2.90419,-5.80837 -9.53258,1.02123 -18.40098,4.77217 -27.71606,7.82868 l -0.31567,0.44194 c 0,0 9.34391,19.95051 9.84899,21.52888 0.50507,1.57836 3.6618,10.41719 3.6618,10.41719 0,0 7.63928,-2.14657 8.71257,-1.89403 1.07328,0.25254 1.01015,6.50286 0.69448,8.83883 -0.31568,2.33598 -2.20971,7.82869 -2.90419,8.90197 -0.69448,1.07329 -2.08344,2.65165 -2.08344,2.65165 0,0 3.59867,3.59867 4.79822,5.17703 1.19956,1.57837 3.15673,5.74525 3.09359,6.88167 -0.0631,1.13642 0.12627,1.76777 0.12627,1.76777 0,0 4.29315,3.15672 5.42957,4.86135 1.13642,1.70464 1.95717,5.17704 1.32583,6.81853 -0.63135,1.6415 -4.23002,7.26048 -4.23002,7.26048 l 1.53549,1.52913 0.5163,1.33255 c 0,0 1.2867,5.95398 1.48814,8.84602 0.20341,2.92027 -0.0338,7.74302 -4.11348,12.82333 -10.90236,11.48893 -17.94605,15.01439 -37.57846,15.48024 -3.52678,-0.44643 -8.75,-1.33929 -9.0625,-1.38393 -4.3144,1.56418 -8.60772,3.21256 -12.85714,4.95536 0,0 -0.44643,5.75893 -0.49107,6.60714 -0.0446,0.84821 0.75893,0.71429 0.75893,0.71429 0,0 15,-1.29465 17.8125,-1.29465 2.8125,0 20.625,-0.26785 20.625,-0.26785 0,0 17.05357,0.84821 19.77678,1.51785 2.72322,0.66965 7.85715,1.20536 10.625,3.92857 l 2.76786,2.72322 c 0,0 1.29464,1.78571 0.84822,3.92857 -0.44643,2.14286 -1.78572,5.53571 -4.01786,7.36607 -2.23214,1.83036 -4.50893,4.01786 -8.52679,4.82143 -4.01785,0.80357 -8.48214,1.51786 -8.97321,1.51786 -0.49107,0 -14.95536,0.22321 -14.95536,0.22321 l -10.84821,-0.84821 -1.65179,-0.13393 c 0,0 -0.49107,1.02678 -2.5,2.45536 -2.00893,1.42857 -6.96428,4.01785 -10.53571,4.46428 -3.57143,0.44643 -13.21429,1.02679 -18.70536,0.66964 -5.49107,-0.35714 -27.5,-3.52678 -27.5,-3.52678 l -27.5,-5.71429 c 0,0 -3.21429,-0.26785 -4.95536,-0.71428 -1.74107,-0.44643 -4.46428,-0.53572 -4.41964,-1.96429 0.0446,-1.42857 0.71429,-2.72321 2.00893,-4.77678 1.29464,-2.05358 4.0625,-6.875 4.375,-10.35715 0.3125,-3.48214 0.84821,-8.03571 -0.0446,-10.44643 -0.89286,-2.41071 -2.54465,-5.08928 -2.54465,-5.08928 0,0 -7.58928,9.82143 -10.98214,12.54464 -3.39286,2.72322 -14.50893,9.50893 -17.85714,10.66964 -3.34822,1.16072 -11.78572,3.97322 -16.25,4.6875 -4.46429,0.71429 -11.69643,1.20536 -17.09822,1.11608 -5.40178,-0.0893 -15.75892,-0.53572 -18.75,-1.16072 -2.99107,-0.625 -7.14285,-1.65178 -8.25892,-2.54464 -1.11608,-0.89286 -1.69643,-1.69643 -1.69643,-1.69643 z"
         style="fill:#bb763f;fill-opacity:1;fill-rule:evenodd;stroke:#603915;stroke-width:3;stroke-linecap:butt;stroke-linejoin:miter;stroke-miterlimit:4;stroke-dasharray:none;stroke-opacity:1" />
      <path
         inkscape:connector-curvature="0"
         id="path4136"
         d="m 173.92857,276.38007 c 0,0 10.89286,2.05357 14.01786,2.23214 3.125,0.17858 11.42857,0.35715 11.42857,0.35715 l 0.44643,1.60714 c 0,0 -0.80358,3.66071 -1.42858,5 -0.625,1.33929 -1.33928,2.32143 -1.33928,2.32143 0,0 -7.5,0.26786 -10.44643,0.53571 -2.94643,0.26786 -9.375,0.80357 -10.89286,1.16072 -1.51785,0.35714 -2.32143,0.35714 -2.32143,0.35714 0,0 1.60715,-2.32143 1.42858,-5.89286 -0.17858,-3.57143 -0.89286,-7.67857 -0.89286,-7.67857 z"
         style="fill:#ffffff;fill-rule:evenodd;stroke:#603915;stroke-width:3;stroke-linecap:butt;stroke-linejoin:miter;stroke-miterlimit:4;stroke-dasharray:none;stroke-opacity:1" />
      <path
         sodipodi:nodetypes="cccccc"
         inkscape:connector-curvature="0"
         id="path4138"
         d="m 180.88016,26.04985 c 0,0 -1.87501,7.64794 1.60715,12.38008 4.83993,7.09324 8.40022,8.78766 14.74483,12.14657 l 5.17857,-3.66071 c 0.34721,-4.00613 -2.14623,-13.7888 -7.09953,-17.24112 -5.78098,-3.75199 -6.22429,-3.36906 -14.43102,-3.62482 z"
         style="fill:#e0a772;fill-opacity:1;fill-rule:evenodd;stroke:none;stroke-width:1px;stroke-linecap:butt;stroke-linejoin:miter;stroke-opacity:1" />
      <path
         sodipodi:nodetypes="ccccsccccc"
         inkscape:connector-curvature="0"
         id="path4140"
         d="m 213.52692,70.66564 c 0.0316,-0.15783 0.36759,-4.52905 5.87918,-6.1601 5.01458,-0.85695 5.72965,1.07279 8.5155,3.31905 0,0 -0.28411,0.12627 -0.0631,0 0.22097,-0.12627 0.78918,-0.12627 -0.12627,-1.32583 -0.91545,-1.19955 -2.02441,-3.45932 -4.89292,-3.7565 -3.92687,-0.59112 -9.15982,1.22343 -9.81742,5.398 -0.22097,1.8309 -0.22097,3.03046 0.0316,3.283 0.25254,0.25254 0.47351,-0.75762 0.47351,-0.75762 z"
         style="fill:#603915;fill-opacity:1;fill-rule:evenodd;stroke:none;stroke-width:1px;stroke-linecap:butt;stroke-linejoin:miter;stroke-opacity:1" />
      <path
         sodipodi:nodetypes="ccsccccc"
         inkscape:connector-curvature="0"
         id="path4142"
         d="m 245.912,57.26724 c 1.85288,-0.13935 3.24128,-0.3658 5.57765,1.27278 1.29465,0.95982 2.07953,1.89172 2.39203,1.60154 0.3125,-0.29018 0.67189,-0.59185 -0.28797,-1.32846 -0.95982,-0.7366 -2.27902,-2.12502 -4.33035,-2.54464 -4.25986,-0.7901 -8.08988,1.10765 -7.58929,5.33482 0.13393,0.91518 -0.0223,0.84822 0.40179,0.87054 0.65456,-2.77718 1.09541,-4.52006 3.83614,-5.20658 z"
         style="fill:#603915;fill-opacity:1;fill-rule:evenodd;stroke:none;stroke-width:1px;stroke-linecap:butt;stroke-linejoin:miter;stroke-opacity:1" />
      <path
         sodipodi:nodetypes="ccccc"
         inkscape:connector-curvature="0"
         id="path4144"
         d="m 267.85419,78.21022 c 5.74524,-0.56821 8.83883,0.0947 10.00682,1.95717 2.87694,6.40888 -6.24444,10.06962 -10.8907,10.25936 -3.56711,0.0631 -5.39801,-0.91545 -6.06092,-1.64149 -4.81371,-5.71198 3.906,-10.17204 6.9448,-10.57504 z"
         style="fill:#603915;fill-opacity:1;fill-rule:evenodd;stroke:none;stroke-width:1px;stroke-linecap:butt;stroke-linejoin:miter;stroke-opacity:1" />
      <path
         inkscape:connector-curvature="0"
         id="path4147"
         d="m 235.75893,97.764 c 0,0 2.00892,2.67857 5.44642,3.16964 3.4375,0.49107 7.36608,0.625 7.36608,0.625 0,0 1.29464,-0.0893 0.35714,0.89286 -0.9375,0.98214 -5.3125,1.11607 -6.16072,1.07143 -0.84821,-0.0446 -4.24107,-1.07143 -5.40178,-2.27679 -1.16072,-1.20535 -2.1875,-1.83035 -2.27679,-2.72321 -0.0893,-0.89286 0.13393,-1.74107 0.53572,-1.25 0.40178,0.49107 0.13393,0.49107 0.13393,0.49107 z"
         style="fill:#603915;fill-opacity:1;fill-rule:evenodd;stroke:none;stroke-width:1px;stroke-linecap:butt;stroke-linejoin:miter;stroke-opacity:1" />
      <path
         inkscape:connector-curvature="0"
         id="path4149"
         d="m 207.32143,134.14793 c 0,0 -4.55358,8.30357 -4.28572,11.25 0.26786,2.94643 0.71429,5.44643 0.80357,4.01786 0.0893,-1.42858 1.25,-5.71429 2.32143,-9.01786 1.07143,-3.30357 1.78572,-4.46429 2.05357,-5.44643 0.26786,-0.98214 -0.89285,-0.80357 -0.89285,-0.80357 z"
         style="fill:#603915;fill-opacity:1;fill-rule:evenodd;stroke:none;stroke-width:1px;stroke-linecap:butt;stroke-linejoin:miter;stroke-opacity:1" />
      <path
         sodipodi:nodetypes="cccscccc"
         inkscape:connector-curvature="0"
         id="path4151"
         d="m 220.00001,161.42472 c 0,0 -17.50001,5.49107 -23.75002,5.22321 -9.23216,-0.0174 -11.64529,-10.48503 -10.08928,-22.32143 0,0 -1.78571,0.625 -1.875,4.46429 -0.0893,3.83928 0,12.14285 2.05357,15.44642 4.85211,8.05349 11.36752,5.71582 19.55358,3.66072 4.68229,-1.24458 9.20718,-2.61853 13.92857,-5.22322 0.625,-0.44642 0.17858,-1.24999 0.17858,-1.24999 z"
         style="fill:#603915;fill-opacity:1;fill-rule:evenodd;stroke:none;stroke-width:1px;stroke-linecap:butt;stroke-linejoin:miter;stroke-opacity:1" />
      <path
         sodipodi:nodetypes="cccccc"
         inkscape:connector-curvature="0"
         id="path4153"
         d="m 174.10714,182.89793 c 0,0 12.85715,1.07143 17.32143,5.71429 14.8059,12.1197 13.17976,23.95985 10.44643,37.32142 -7.5893,24.01786 -11.69644,25.17857 -11.69644,25.17857 L 182.5,260.21936 c 22.39828,-33.4813 23.68614,-68.73196 -8.39286,-77.32143 z"
         style="fill:#603915;fill-opacity:1;fill-rule:evenodd;stroke:none;stroke-width:1px;stroke-linecap:butt;stroke-linejoin:miter;stroke-opacity:1" />
      <path
         sodipodi:nodetypes="cccssc"
         inkscape:connector-curvature="0"
         id="path4155"
         d="m 137.9961,220.29333 c 0,0 -5.38066,13.31177 -1.11475,23.36068 5.55982,10.935 2.13142,5.13192 12.04722,22.10106 0,0 -11.44652,-13.43247 -14.46429,-21.78571 -2.40411,-6.65463 -2.18247,-15.28318 0.13896,-19.03318 2.32143,-3.75 3.39286,-4.64285 3.39286,-4.64285 z"
         style="fill:#603915;fill-opacity:1;fill-rule:evenodd;stroke:none;stroke-width:1px;stroke-linecap:butt;stroke-linejoin:miter;stroke-opacity:1" />
      <path
         sodipodi:nodetypes="cssssscccscccssscsscccccccccscscccc"
         inkscape:connector-curvature="0"
         id="path4183"
         d="m 172.65428,273.56254 c 0.17857,-0.35714 2.88143,-1.73604 4.22072,-2.45033 1.33928,-0.71428 12.67857,-8.03571 15.53571,-10.89285 2.85714,-2.85715 12.58929,-14.91072 16.33929,-22.5 3.75,-7.58929 8.57143,-17.14286 9.91071,-22.41072 1.33929,-5.26785 3.125,-16.69643 3.39286,-20.26785 0.26786,-3.57143 -0.71429,-21.07143 -0.71429,-21.07143 l -1.42857,-10.80357 0.26786,-1.60715 c 0,0 4.55357,-1.51785 9.82143,-2.05357 5.26785,-0.53571 8.30357,-0.89286 8.30357,-0.89286 l 0.625,6.38393 c 4.53857,5.94022 12.94354,5.20281 15.35079,-1.65178 0.22322,-2.54464 -1.95793,-8.83929 -3.47579,-10.80357 -1.51786,-1.96429 -3.75,-4.46429 -8.125,-5.35715 -4.375,-0.89285 -7.32143,-0.89285 -11.42857,-0.71428 -4.10715,0.17857 -13.83929,1.16071 -13.83929,1.16071 0,0 -1.33928,-0.44643 -1.42857,-9.19643 -0.0893,-8.75 1.78571,-19.82142 2.85714,-22.94642 1.07143,-3.125 2.73723,-4.07651 2.73723,-4.07651 l 13.42611,1.40056 8.51278,21.46556 7.63262,13.8546 14.11983,32.35578 14.375,51.87501 2.44911,2.10597 c 0,0 2.05728,11.20097 0.28952,16.12546 -8.80575,13.87126 -17.96964,19.33636 -35.86677,20.99765 -1.95717,0.25254 -10.73286,-1.4521 -11.80615,-1.8309 -1.07329,-0.37881 -13.32139,4.54568 -13.32139,4.54568 0,0 -6.50286,2.39911 -11.80616,2.96733 -5.3033,0.56821 -15.02602,0.1894 -17.17259,0.25253 -2.14657,0.0631 -15.34169,-2.27284 -15.34169,-2.27284 l -4.64209,-0.73595 z"
         style="fill:#e0a772;fill-opacity:1;fill-rule:evenodd;stroke:none;stroke-width:1px;stroke-linecap:butt;stroke-linejoin:miter;stroke-opacity:1" />
      <path
         sodipodi:nodetypes="cccssccccsscscscsscscscccsscscscscsccc"
         inkscape:connector-curvature="0"
         id="path4181"
         d="m 247.588,199.99674 c -4.63008,-8.42031 -9.2112,-13.73838 -19.3823,-11.99556 -4.23001,0.82074 -5.17703,2.08343 -5.17703,2.08343 0,0 0.36689,2.3119 1.70463,6.62913 1.38897,4.48256 4.04061,7.70242 5.93465,9.02824 1.89403,1.32583 7.1342,5.42957 7.1342,5.42957 -2.29413,7.36028 1.48974,13.6409 3.59867,19.00349 -1.29658,1.87356 -2.22163,3.85631 -2.96732,5.99778 l -0.50508,4.79823 c 0,0 8.39689,1.8309 8.7757,2.33598 0.37881,0.50507 1.38896,6.81853 2.71478,10.29093 1.32583,3.4724 1.70464,3.59866 1.70464,3.59866 0,0 6.43972,-2.77792 7.57614,-2.27284 1.13642,0.50508 1.4521,0.31567 1.4521,0.31567 0,0 -2.08344,-5.61897 -2.58852,-7.57614 -0.50508,-1.95717 -0.63135,-2.27284 -0.63135,-2.27284 0,0 15.08916,-1.26269 15.5311,-1.83091 0.44194,-0.56821 0,1.38896 0,3.40927 0,2.0203 -0.75761,5.68211 -0.75761,5.68211 0,0 6.43972,-0.31567 7.1342,0.25254 0.69448,0.56821 1.01015,1.19955 1.01015,1.19955 0,0 2.14657,-6.75539 1.57836,-11.17481 -0.56821,-4.41942 -1.45209,-10.29093 -1.45209,-10.29093 3.07834,-3.98705 5.95255,-7.99731 4.23001,-12.69004 -1.3105,-3.29646 -5.79305,-6.0979 -5.79305,-6.0979 0,0 -0.87203,-4.92539 -2.41444,-7.16035 -5.28372,-7.65614 -7.95495,-8.33376 -9.65958,-9.02824 -1.70463,-0.69448 -6.50286,-0.63135 -6.50286,-0.63135 0,0 0.12627,-3.91434 0.31568,-4.16688 0.1894,-0.25253 -3.4724,2.02031 -3.4724,2.02031 0,0 -1.13643,-1.13642 -1.01016,-2.71479 0.12627,-1.57836 0.25254,-2.14657 0.25254,-2.14657 0,0 -3.72494,2.77792 -3.8512,4.54569 -0.12627,1.76776 0.1894,2.84105 0.1894,2.84105 0,0 -1.89404,-3.283 -2.08344,-4.41942 -0.1894,-1.13642 -1.89404,1.13642 -1.95717,2.84106 -0.0631,1.70463 -0.12627,4.98763 -0.12627,4.98763 z"
         style="fill:#bb763f;fill-opacity:1;fill-rule:evenodd;stroke:#603915;stroke-width:1px;stroke-linecap:butt;stroke-linejoin:miter;stroke-opacity:1" />
      <path
         sodipodi:nodetypes="cscccsc"
         inkscape:connector-curvature="0"
         id="path4157"
         d="m 244.55357,201.64793 c 0,0 -1.51786,-5.71429 -5.53572,-7.85714 -4.01785,-2.14286 -9.19642,-0.625 -10.08928,-0.26786 -1.63475,2.10979 3.23476,8.86828 4.31372,9.74746 3.21429,2.41071 6.17603,4.55357 6.17603,4.55357 0,0 0.93882,-1.53317 2.45668,-3.40817 1.51785,-1.875 2.67857,-2.76786 2.67857,-2.76786 z"
         style="fill:#e0a772;fill-opacity:1;fill-rule:evenodd;stroke:#603915;stroke-width:1px;stroke-linecap:butt;stroke-linejoin:miter;stroke-opacity:1" />
      <path
         sodipodi:nodetypes="ccsccsc"
         inkscape:connector-curvature="0"
         id="path4159"
         d="m 249.28571,218.43364 c 0.41251,-2.79235 2.15956,-4.92892 4.46429,-5.71428 1.33928,-0.44643 2.94643,-0.35715 4.01785,0.35714 1.07143,0.71429 2.41072,2.5 2.41072,2.5 -4.07569,-2.61939 -5.20345,-1.96508 -7.14286,-0.71429 -1.69643,1.16072 -2.5,3.03572 -2.67857,3.57143 -0.17857,0.53572 -1.07143,0 -1.07143,0 z"
         style="fill:#603915;fill-opacity:1;fill-rule:evenodd;stroke:none;stroke-width:1px;stroke-linecap:butt;stroke-linejoin:miter;stroke-opacity:1" />
      <path
         sodipodi:nodetypes="ccccc"
         inkscape:connector-curvature="0"
         id="path4161"
         d="m 267.54464,212.4515 c 0,0 0.96141,-2.88778 3.0826,-3.86544 2.75897,-0.86429 4.75989,-0.0751 5.84597,3.24044 0,0 -1.82177,-2.26913 -2.80392,-2.26913 -3.18304,-0.61666 -3.71094,1.2827 -6.12465,2.89413 z"
         style="fill:#603915;fill-opacity:1;fill-rule:evenodd;stroke:none;stroke-width:1px;stroke-linecap:butt;stroke-linejoin:miter;stroke-opacity:1" />
      <path
         sodipodi:nodetypes="cccsscc"
         inkscape:connector-curvature="0"
         id="path4163"
         d="m 257.32142,229.91802 c 1.60715,1.26116 4.05695,1.36303 6.42858,1.43973 l 0.26784,0.69197 c 0,0 -3.32398,-0.10555 -4.41965,-0.37946 -1.25,-0.3125 -3.08036,-0.80358 -3.86161,-2.23215 -0.70654,-1.29196 0.24554,-3.68304 0.24554,-3.68304 0.4701,2.10989 -0.2948,2.82684 1.3393,4.16295 z"
         style="fill:#603915;fill-opacity:1;fill-rule:evenodd;stroke:none;stroke-width:1px;stroke-linecap:butt;stroke-linejoin:miter;stroke-opacity:1" />
      <path
         sodipodi:nodetypes="cccc"
         inkscape:connector-curvature="0"
         id="path4165"
         d="m 269.9757,222.88261 c 1.4788,-3.49102 8.57132,-6.86458 10.95228,-2.21047 2.22892,5.20558 -4.81029,7.14752 -7.47648,6.27877 -2.12067,-0.99915 -4.55284,-2.16972 -3.4758,-4.0683 z"
         style="fill:#603915;fill-opacity:1;fill-rule:evenodd;stroke:none;stroke-width:1px;stroke-linecap:butt;stroke-linejoin:miter;stroke-opacity:1" />
      <path
         inkscape:connector-curvature="0"
         id="path4167"
         d="m 256.93191,245.32733 c 0,0 -1.26269,-3.4724 -0.63134,-5.3033 0.63134,-1.8309 0.31567,-2.71478 1.26269,-2.46225 0.94702,0.25254 5.05076,0.69448 7.26047,0.69448 2.20971,0 5.42957,-1.32582 6.25032,-1.26269 0.82075,0.0631 1.45209,0.25254 1.26269,1.76777 -0.1894,1.51523 0.37881,3.97748 0.0631,4.48255 -0.31568,0.50508 -3.53554,1.4521 -8.08123,1.6415 -4.54568,0.1894 -7.38674,0.44194 -7.38674,0.44194 z"
         style="fill:#e0a772;fill-opacity:1;fill-rule:evenodd;stroke:#603915;stroke-width:1px;stroke-linecap:butt;stroke-linejoin:miter;stroke-opacity:1" />
      <path
         sodipodi:nodetypes="ccsssc"
         inkscape:connector-curvature="0"
         id="path4169"
         d="m 237.59425,240.82946 0.83925,-5.16171 c 0,0 -7.38674,-0.63135 -12.0587,-2.20971 -4.67196,-1.57836 -7.00793,-2.14657 -6.88166,-1.6415 0.12627,0.50508 4.23001,3.91434 8.52316,5.55584 4.29315,1.6415 9.57795,3.45708 9.57795,3.45708 z"
         style="fill:#e0a772;fill-opacity:1;fill-rule:evenodd;stroke:#603915;stroke-width:1px;stroke-linecap:butt;stroke-linejoin:miter;stroke-opacity:1" />
      <path
         inkscape:connector-curvature="0"
         id="path4171"
         d="m 251.06507,257.25996 c 0,0 4.67924,-2.28792 6.42806,-2.47885 1.7488,-0.19092 3.11949,0.0148 2.59958,1.22671 -0.51993,1.21186 -0.85078,2.98063 -2.50506,3.91648 -1.65428,0.93587 -2.88317,0.89233 -4.58471,-0.16587 -1.70155,-1.05818 -1.93787,-2.49847 -1.93787,-2.49847 z"
         style="fill:#613814;fill-opacity:1;fill-rule:evenodd;stroke:#603915;stroke-width:1.02645791px;stroke-linecap:butt;stroke-linejoin:miter;stroke-opacity:1" />
      <path
         sodipodi:nodetypes="cccccc"
         inkscape:connector-curvature="0"
         id="path4173"
         d="m 271.7054,253.09288 c 0,0 3.15672,-0.63135 5.61897,0.0631 2.46225,0.69448 2.48216,1.18951 1.67306,2.68323 -2.0809,2.59499 -6.02734,2.16321 -7.0395,-0.22098 -0.69448,-1.8309 -0.25253,-2.52538 -0.25253,-2.52538 z"
         style="fill:#603915;fill-opacity:1;fill-rule:evenodd;stroke:#603915;stroke-width:1px;stroke-linecap:butt;stroke-linejoin:miter;stroke-opacity:1" />
      <path
         sodipodi:nodetypes="csscccc"
         inkscape:connector-curvature="0"
         id="path4175"
         d="m 239.64285,164.59436 c 0,0 5.26786,-3.30357 8.125,-3.79465 2.85715,-0.49107 5.35715,-0.89285 5.98215,-0.3125 0.625,0.58036 0.75892,3.34822 0.0893,5.625 -1.59112,5.24777 -10.09699,5.06752 -13.39286,1.51786 -1.20536,-1.42857 -1.51786,-2.58928 -1.51786,-2.58928 z"
         style="fill:#603915;fill-opacity:1;fill-rule:evenodd;stroke:none;stroke-width:1px;stroke-linecap:butt;stroke-linejoin:miter;stroke-opacity:1" />
      <path
         inkscape:connector-curvature="0"
         id="path4177"
         d="m 282.76785,145.66579 c 0.0893,-0.40179 3.57143,-3.88393 5.53572,-4.33036 1.96428,-0.44643 5.49107,-0.75893 5.9375,-0.53572 0.44643,0.22322 1.74107,3.97322 0.22321,5.80358 -1.51785,1.83035 -1.96428,3.21428 -3.70535,3.30357 -1.74108,0.0893 -5.66965,-0.71429 -6.69643,-1.60715 -1.02679,-0.89285 -1.875,-2.27678 -1.875,-2.27678 z"
         style="fill:#603915;fill-opacity:1;fill-rule:evenodd;stroke:none;stroke-width:1px;stroke-linecap:butt;stroke-linejoin:miter;stroke-opacity:1" />
      <path
         sodipodi:nodetypes="cssccccccsccc"
         inkscape:connector-curvature="0"
         id="path4179"
         d="m 266.79185,180.77254 c 0,0 -3.11089,0.25768 -5.19433,2.90933 -2.08343,2.65165 -4.88564,8.04873 -4.88564,8.86948 0,0.82075 -0.0785,2.10958 -0.0785,2.10958 l 3.58149,-2.05093 -0.12627,3.09359 -0.25254,1.32582 c 0,0 4.98763,-0.0631 6.7554,0.63135 1.76777,0.69448 4.52216,2.36661 4.52216,2.36661 0,0 2.53807,-4.50235 3.23255,-8.03789 0.69448,-3.53553 0.79778,-8.71442 0.62752,-10.47901 0.0102,-3.80201 -4.47742,-1.57787 -8.18188,-0.73793 z"
         style="fill:#603915;fill-opacity:1;fill-rule:evenodd;stroke:#603915;stroke-width:1px;stroke-linecap:butt;stroke-linejoin:miter;stroke-opacity:1" />
      <path
         sodipodi:nodetypes="csscsccssccsccc"
         inkscape:connector-curvature="0"
         id="path4185"
         d="m 196.81919,289.37114 1.18032,-0.11992 c 4.05294,-0.41177 6.08844,-2.6027 21.44166,-0.98638 9.9892,1.05162 19.08206,1.08689 22.2291,3.84482 2.36383,2.58387 4.7583,7.9311 2.79402,11.32396 -1.96429,3.39286 -0.80358,2.94643 -0.80358,2.94643 l 2.00893,0.3125 c 0,0 0.71428,-1.47321 1.20535,-2.36607 0.49107,-0.89286 0.99667,-2.57957 0.84822,-4.73214 -0.17858,-2.58929 -1.60714,-5.80357 -3.66071,-8.48214 -2.46686,-2.85873 -8.82059,-3.19152 -14.24108,-4.01786 -10.66964,-1.02678 -19.40324,-1.62967 -24.88641,-1.21937 -6.56251,0.49107 -7.99239,1.34378 -8.17097,1.38842 -0.52909,1.09582 -0.78775,1.34146 0.0551,2.10775 z"
         style="fill:#603915;fill-opacity:1;fill-rule:evenodd;stroke:none;stroke-width:1px;stroke-linecap:butt;stroke-linejoin:miter;stroke-opacity:1" />
      <path
         sodipodi:nodetypes="csccsc"
         inkscape:connector-curvature="0"
         id="path4187"
         d="m 219.31952,42.04992 c 2.35175,-0.7734 4.90354,-0.98476 9.80163,-0.17362 l 4.82214,0.97699 1.30191,-1.13483 c -2.08342,-0.94788 -12.79474,-3.05221 -15.63939,-0.89679 -0.31307,0.23722 -0.16234,0.88627 -0.28629,1.22825 z"
         style="fill:#603915;fill-opacity:1;fill-rule:evenodd;stroke:none;stroke-width:1px;stroke-linecap:butt;stroke-linejoin:miter;stroke-opacity:1" />
      <text
         sodipodi:linespacing="125%"
         id="text4162"
         y="357.49634"
         x="-2.7554474"
         style="font-style:normal;font-weight:normal;font-size:98.34262085px;line-height:125%;font-family:sans-serif;letter-spacing:0px;word-spacing:0px;fill:#bb763f;fill-opacity:1;stroke:#603915;stroke-width:3;stroke-linecap:butt;stroke-linejoin:miter;stroke-miterlimit:4;stroke-dasharray:none;stroke-opacity:1"
         xml:space="preserve"><tspan
           style="font-style:normal;font-variant:normal;font-weight:normal;font-stretch:normal;font-family:'Birthday Boy';-inkscape-font-specification:'Birthday Boy';fill:#bb763f;fill-opacity:1;stroke:#603915;stroke-width:3;stroke-miterlimit:4;stroke-dasharray:none;stroke-opacity:1"
           y="357.49634"
           x="-2.7554474"
           id="tspan4164"
           sodipodi:role="line">Kanguru</tspan></text>
      <path
         style="fill:#e0a772;fill-opacity:1;fill-rule:evenodd;stroke:none;stroke-width:1px;stroke-linecap:butt;stroke-linejoin:miter;stroke-opacity:1"
         d="m 267.92412,181.20114 c 0,0 -2.20501,0.15066 -4.29751,2.49178 -2.09251,2.34114 -5.10999,7.23181 -5.20102,8.01274 -0.0911,0.78095 -0.30176,2.00041 -0.30176,2.00041 l 3.31892,-1.63878 -0.45219,2.93252 -0.36506,1.23946 c 0,0 4.31213,0.37542 5.76095,1.1905 1.44882,0.81513 3.64081,2.64661 3.64081,2.64661 l 3.6819,-7.36581 c 2.40822,-4.81778 0.68659,-11.33218 0.68659,-11.33218 0.43023,-3.61674 -3.18092,-0.65303 -6.47163,-0.17725 z"
         id="path4311"
         inkscape:connector-curvature="0"
         sodipodi:nodetypes="cssccccccscc" />
    </g>
    <g
       id="g4354"
       inkscape:export-filename="/home/salamflamo/Pictures/kanguru-tshirt/sablon/1.png"
       inkscape:export-xdpi="108"
       inkscape:export-ydpi="108">
      <path
         style="fill:#ffffff;fill-opacity:1;fill-rule:evenodd;stroke:#000000;stroke-width:3;stroke-linecap:butt;stroke-linejoin:miter;stroke-miterlimit:4;stroke-dasharray:none;stroke-opacity:1"
         d="m 476.32947,297.16812 c 0,0 0.96418,-1.1305 3.11075,-1.88811 28.40825,-6.11138 65.57,-21.23776 63.38707,-53.66436 -0.35787,-8.49512 -0.13719,-17.19537 2.27285,-25.38008 4.48381,-15.13904 18.30515,-33.6998 30.80965,-39.26968 6.2949,-9.34454 11.82034,-19.117 17.80394,-28.66308 0,0 4.29315,-7.70241 4.67195,-9.59645 1.9641,-7.44081 5.73569,-14.21576 9.09138,-21.08693 l 4.04061,-7.44988 c -3.99338,-6.37785 -7.87374,-13.157305 -9.84899,-20.455585 -2.03795,-9.87812 -0.69541,-18.19364 3.283,-27.14785 l 2.98493,-6.29085 c 0,0 -1.78538,-1.09589 -4.31076,-2.98992 -2.52538,-1.89404 -7.3236,-7.70242 -8.14435,-8.83884 -0.82075,-1.13642 -5.05077,-8.27062 -5.68211,-11.55362 -0.63135,-3.28299 -1.19956,-11.55362 -1.19956,-11.55362 0,0 7.57615,-1.89403 13.63706,-0.3788 8.77791,1.9795 14.47696,7.64193 17.74081,15.9099 0.75761,2.08344 2.39911,9.40704 2.39911,9.40704 0,0 3.09359,-1.95717 6.12405,-2.65165 3.03045,-0.69448 4.98763,-1.26269 4.98763,-1.26269 -0.75173,-6.42577 -1.76692,-13.46147 0.82075,-19.63483 4.42119,-8.78386 11.36825,-11.50229 17.99334,-13.5108005 6.77725,10.1765305 8.71051,23.4201805 0.69448,32.8299605 -0.69448,1.19956 -1.19956,1.6415 -1.19956,1.6415 0,0 6.12405,1.8309 9.15451,4.92449 3.03046,3.09359 8.7757,9.28078 10.29093,10.79601 4.87534,7.85968 15.22729,9.88784 20.89753,16.41498 4.03139,4.62649 6.39906,9.2607 5.55584,15.46796 -0.90337,7.9843 -5.73202,16.425655 -11.99557,20.392445 -7.72412,4.07299 -16.58614,6.01541 -25.31694,5.05076 -1.8309,-0.25253 -8.33376,-1.07328 -8.33376,-1.07328 l 8.83883,21.84454 c 11.41453,-2.97477 23.91117,-7.83287 35.41848,-6.94479 5.58859,0.31487 10.33844,3.51065 12.56377,8.64943 0.88388,2.20971 1.45209,3.53553 1.38896,5.42957 -1.70155,8.1211 -7.85112,8.64187 -11.93243,3.8512 -1.89403,-2.33597 -2.90419,-5.80837 -2.90419,-5.80837 -9.53258,1.02123 -18.40098,4.77217 -27.71606,7.82868 l -0.31567,0.44194 c 0,0 9.34391,19.95051 9.84899,21.52888 0.50507,1.57836 3.6618,10.41719 3.6618,10.41719 0,0 7.63928,-2.14657 8.71257,-1.89403 1.07328,0.25254 1.01015,6.50286 0.69448,8.83883 -0.31568,2.33598 -2.20971,7.82869 -2.90419,8.90197 -0.69448,1.07329 -2.08344,2.65165 -2.08344,2.65165 0,0 3.59867,3.59867 4.79822,5.17703 1.19956,1.57837 3.15673,5.74525 3.09359,6.88167 -0.0631,1.13642 0.12627,1.76777 0.12627,1.76777 0,0 4.29315,3.15672 5.42957,4.86135 1.13642,1.70464 1.95717,5.17704 1.32583,6.81853 -0.63135,1.6415 -4.23002,7.26048 -4.23002,7.26048 l 1.53549,1.52913 0.5163,1.33255 c 0,0 1.2867,5.95398 1.48814,8.84602 0.20341,2.92027 -0.0338,7.74302 -4.11348,12.82333 -10.90236,11.48893 -17.94605,15.01439 -37.57846,15.48024 -3.52678,-0.44643 -8.75,-1.33929 -9.0625,-1.38393 -4.3144,1.56418 -8.60772,3.21256 -12.85714,4.95536 0,0 -0.44643,5.75893 -0.49107,6.60714 -0.0446,0.84821 0.75893,0.71429 0.75893,0.71429 0,0 15,-1.29465 17.8125,-1.29465 2.8125,0 20.625,-0.26785 20.625,-0.26785 0,0 17.05357,0.84821 19.77678,1.51785 2.72322,0.66965 7.85715,1.20536 10.625,3.92857 l 2.76786,2.72322 c 0,0 1.29464,1.78571 0.84822,3.92857 -0.44643,2.14286 -1.78572,5.53571 -4.01786,7.36607 -2.23214,1.83036 -4.50893,4.01786 -8.52679,4.82143 -4.01785,0.80357 -8.48214,1.51786 -8.97321,1.51786 -0.49107,0 -14.95536,0.22321 -14.95536,0.22321 l -10.84821,-0.84821 -1.65179,-0.13393 c 0,0 -0.49107,1.02678 -2.5,2.45536 -2.00893,1.42857 -6.96428,4.01785 -10.53571,4.46428 -3.57143,0.44643 -13.21429,1.02679 -18.70536,0.66964 -5.49107,-0.35714 -27.5,-3.52678 -27.5,-3.52678 l -27.5,-5.71429 c 0,0 -3.21429,-0.26785 -4.95536,-0.71428 -1.74107,-0.44643 -4.46428,-0.53572 -4.41964,-1.96429 0.0446,-1.42857 0.71429,-2.72321 2.00893,-4.77678 1.29464,-2.05358 4.0625,-6.875 4.375,-10.35715 0.3125,-3.48214 0.84821,-8.03571 -0.0446,-10.44643 -0.89286,-2.41071 -2.54465,-5.08928 -2.54465,-5.08928 0,0 -7.58928,9.82143 -10.98214,12.54464 -3.39286,2.72322 -14.50893,9.50893 -17.85714,10.66964 -3.34822,1.16072 -11.78572,3.97322 -16.25,4.6875 -4.46429,0.71429 -11.69643,1.20536 -17.09822,1.11608 -5.40178,-0.0893 -15.75892,-0.53572 -18.75,-1.16072 -2.99107,-0.625 -7.14285,-1.65178 -8.25892,-2.54464 -1.11608,-0.89286 -1.69643,-1.69643 -1.69643,-1.69643 z"
         id="path4436"
         inkscape:connector-curvature="0"
         sodipodi:nodetypes="ccccccccccccsssccccscccccsccccccccccccccscssscsccsscccsccccccscsscsssscccsssccscssccsssssscc" />
      <path
         style="fill:#ffffff;fill-rule:evenodd;stroke:#000000;stroke-width:3;stroke-linecap:butt;stroke-linejoin:miter;stroke-miterlimit:4;stroke-dasharray:none;stroke-opacity:1"
         d="m 589.18661,277.97169 c 0,0 10.89286,2.05357 14.01786,2.23214 3.125,0.17858 11.42857,0.35715 11.42857,0.35715 l 0.44643,1.60714 c 0,0 -0.80358,3.66071 -1.42858,5 -0.625,1.33929 -1.33928,2.32143 -1.33928,2.32143 0,0 -7.5,0.26786 -10.44643,0.53571 -2.94643,0.26786 -9.375,0.80357 -10.89286,1.16072 -1.51785,0.35714 -2.32143,0.35714 -2.32143,0.35714 0,0 1.60715,-2.32143 1.42858,-5.89286 -0.17858,-3.57143 -0.89286,-7.67857 -0.89286,-7.67857 z"
         id="path4438"
         inkscape:connector-curvature="0" />
      <path
         style="fill:#ffffff;fill-opacity:1;fill-rule:evenodd;stroke:none;stroke-width:1px;stroke-linecap:butt;stroke-linejoin:miter;stroke-opacity:1"
         d="m 596.1382,27.641474 c 0,0 -1.87501,7.64794 1.60715,12.38008 4.83993,7.093241 8.40022,8.787661 14.74483,12.14657 l 5.17857,-3.66071 c 0.34721,-4.00613 -2.14623,-13.7888 -7.09953,-17.24112 -5.78098,-3.75199 -6.22429,-3.36906 -14.43102,-3.62482 z"
         id="path4440"
         inkscape:connector-curvature="0"
         sodipodi:nodetypes="cccccc" />
      <path
         style="fill:#000000;fill-opacity:1;fill-rule:evenodd;stroke:none;stroke-width:1px;stroke-linecap:butt;stroke-linejoin:miter;stroke-opacity:1"
         d="m 628.78496,72.257264 c 0.0316,-0.15783 0.36759,-4.52905 5.87918,-6.1601 5.01458,-0.85695 5.72965,1.07279 8.5155,3.31905 0,0 -0.28411,0.12627 -0.0631,0 0.22097,-0.12627 0.78918,-0.12627 -0.12627,-1.32583 -0.91545,-1.19955 -2.02441,-3.459319 -4.89292,-3.7565 -3.92687,-0.591119 -9.15982,1.223431 -9.81742,5.398 -0.22097,1.8309 -0.22097,3.03046 0.0316,3.283 0.25254,0.25254 0.47351,-0.75762 0.47351,-0.75762 z"
         id="path4442"
         inkscape:connector-curvature="0"
         sodipodi:nodetypes="ccccsccccc" />
      <path
         style="fill:#000000;fill-opacity:1;fill-rule:evenodd;stroke:none;stroke-width:1px;stroke-linecap:butt;stroke-linejoin:miter;stroke-opacity:1"
         d="m 661.17004,58.858865 c 1.85288,-0.13935 3.24128,-0.3658 5.57765,1.272779 1.29465,0.95982 2.07953,1.89172 2.39203,1.60154 0.3125,-0.29018 0.67189,-0.59185 -0.28797,-1.32846 -0.95982,-0.7366 -2.27902,-2.12502 -4.33035,-2.54464 -4.25986,-0.7901 -8.08988,1.10765 -7.58929,5.33482 0.13393,0.91518 -0.0223,0.84822 0.40179,0.87054 0.65456,-2.77718 1.09541,-4.52006 3.83614,-5.20658 z"
         id="path4444"
         inkscape:connector-curvature="0"
         sodipodi:nodetypes="ccsccccc" />
      <path
         style="fill:#000000;fill-opacity:1;fill-rule:evenodd;stroke:none;stroke-width:1px;stroke-linecap:butt;stroke-linejoin:miter;stroke-opacity:1"
         d="m 683.11223,79.801845 c 5.74524,-0.56821 8.83883,0.0947 10.00682,1.95717 2.87694,6.40888 -6.24444,10.06962 -10.8907,10.25936 -3.56711,0.0631 -5.39801,-0.915451 -6.06092,-1.64149 -4.81371,-5.71198 3.906,-10.17204 6.9448,-10.57504 z"
         id="path4446"
         inkscape:connector-curvature="0"
         sodipodi:nodetypes="ccccc" />
      <path
         style="fill:#000000;fill-opacity:1;fill-rule:evenodd;stroke:none;stroke-width:1px;stroke-linecap:butt;stroke-linejoin:miter;stroke-opacity:1"
         d="m 651.01697,99.355624 c 0,0 2.00892,2.678566 5.44642,3.169636 3.4375,0.49107 7.36608,0.625 7.36608,0.625 0,0 1.29464,-0.0893 0.35714,0.89286 -0.9375,0.98214 -5.3125,1.11607 -6.16072,1.07143 -0.84821,-0.0446 -4.24107,-1.07143 -5.40178,-2.27679 -1.16072,-1.20535 -2.1875,-1.83035 -2.27679,-2.72321 -0.0893,-0.892856 0.13393,-1.741065 0.53572,-1.249996 0.40178,0.49107 0.13393,0.49107 0.13393,0.49107 z"
         id="path4448"
         inkscape:connector-curvature="0" />
      <path
         style="fill:#000000;fill-opacity:1;fill-rule:evenodd;stroke:none;stroke-width:1px;stroke-linecap:butt;stroke-linejoin:miter;stroke-opacity:1"
         d="m 622.57947,135.73955 c 0,0 -4.55358,8.30357 -4.28572,11.25 0.26786,2.94643 0.71429,5.44643 0.80357,4.01786 0.0893,-1.42858 1.25,-5.71429 2.32143,-9.01786 1.07143,-3.30357 1.78572,-4.46429 2.05357,-5.44643 0.26786,-0.98214 -0.89285,-0.80357 -0.89285,-0.80357 z"
         id="path4450"
         inkscape:connector-curvature="0" />
      <path
         style="fill:#000000;fill-opacity:1;fill-rule:evenodd;stroke:none;stroke-width:1px;stroke-linecap:butt;stroke-linejoin:miter;stroke-opacity:1"
         d="m 635.25805,163.01634 c 0,0 -17.50001,5.49107 -23.75002,5.22321 -9.23216,-0.0174 -11.64529,-10.48503 -10.08928,-22.32143 0,0 -1.78571,0.625 -1.875,4.46429 -0.0893,3.83928 0,12.14285 2.05357,15.44642 4.85211,8.05349 11.36752,5.71582 19.55358,3.66072 4.68229,-1.24458 9.20718,-2.61853 13.92857,-5.22322 0.625,-0.44642 0.17858,-1.24999 0.17858,-1.24999 z"
         id="path4452"
         inkscape:connector-curvature="0"
         sodipodi:nodetypes="cccscccc" />
      <path
         style="fill:#000000;fill-opacity:1;fill-rule:evenodd;stroke:none;stroke-width:1px;stroke-linecap:butt;stroke-linejoin:miter;stroke-opacity:1"
         d="m 589.36518,184.48955 c 0,0 12.85715,1.07143 17.32143,5.71429 14.8059,12.1197 13.17976,23.95985 10.44643,37.32142 -7.5893,24.01786 -11.69644,25.17857 -11.69644,25.17857 l -7.67856,9.10715 c 22.39828,-33.4813 23.68614,-68.73196 -8.39286,-77.32143 z"
         id="path4454"
         inkscape:connector-curvature="0"
         sodipodi:nodetypes="cccccc" />
      <path
         style="fill:#000000;fill-opacity:1;fill-rule:evenodd;stroke:none;stroke-width:1px;stroke-linecap:butt;stroke-linejoin:miter;stroke-opacity:1"
         d="m 553.25414,221.88495 c 0,0 -5.38066,13.31177 -1.11475,23.36068 5.55982,10.935 2.13142,5.13192 12.04722,22.10106 0,0 -11.44652,-13.43247 -14.46429,-21.78571 -2.40411,-6.65463 -2.18247,-15.28318 0.13896,-19.03318 2.32143,-3.75 3.39286,-4.64285 3.39286,-4.64285 z"
         id="path4456"
         inkscape:connector-curvature="0"
         sodipodi:nodetypes="cccssc" />
      <path
         style="fill:#ffffff;fill-opacity:1;fill-rule:evenodd;stroke:none;stroke-width:1px;stroke-linecap:butt;stroke-linejoin:miter;stroke-opacity:1"
         d="m 587.91232,275.15416 c 0.17857,-0.35714 2.88143,-1.73604 4.22072,-2.45033 1.33928,-0.71428 12.67857,-8.03571 15.53571,-10.89285 2.85714,-2.85715 12.58929,-14.91072 16.33929,-22.5 3.75,-7.58929 8.57143,-17.14286 9.91071,-22.41072 1.33929,-5.26785 3.125,-16.69643 3.39286,-20.26785 0.26786,-3.57143 -0.71429,-21.07143 -0.71429,-21.07143 l -1.42857,-10.80357 0.26786,-1.60715 c 0,0 4.55357,-1.51785 9.82143,-2.05357 5.26785,-0.53571 8.30357,-0.89286 8.30357,-0.89286 l 0.625,6.38393 c 4.53857,5.94022 12.94354,5.20281 15.35079,-1.65178 0.22322,-2.54464 -1.95793,-8.83929 -3.47579,-10.80357 -1.51786,-1.96429 -3.75,-4.46429 -8.125,-5.35715 -4.375,-0.89285 -7.32143,-0.89285 -11.42857,-0.71428 -4.10715,0.17857 -13.83929,1.16071 -13.83929,1.16071 0,0 -1.33928,-0.44643 -1.42857,-9.19643 -0.0893,-8.75 1.78571,-19.82142 2.85714,-22.94642 1.07143,-3.125 2.73723,-4.07651 2.73723,-4.07651 l 13.42611,1.40056 8.51278,21.46556 7.63262,13.8546 14.11983,32.35578 14.375,51.87501 2.44911,2.10597 c 0,0 2.05728,11.20097 0.28952,16.12546 -8.80575,13.87126 -17.96964,19.33636 -35.86677,20.99765 -1.95717,0.25254 -10.73286,-1.4521 -11.80615,-1.8309 -1.07329,-0.37881 -13.32139,4.54568 -13.32139,4.54568 0,0 -6.50286,2.39911 -11.80616,2.96733 -5.3033,0.56821 -15.02602,0.1894 -17.17259,0.25253 -2.14657,0.0631 -15.34169,-2.27284 -15.34169,-2.27284 l -4.64209,-0.73595 z"
         id="path4458"
         inkscape:connector-curvature="0"
         sodipodi:nodetypes="cssssscccscccssscsscccccccccscscccc" />
      <path
         style="fill:#ffffff;fill-opacity:1;fill-rule:evenodd;stroke:#000000;stroke-width:1px;stroke-linecap:butt;stroke-linejoin:miter;stroke-opacity:1"
         d="m 662.84604,201.58836 c -4.63008,-8.42031 -9.2112,-13.73838 -19.3823,-11.99556 -4.23001,0.82074 -5.17703,2.08343 -5.17703,2.08343 0,0 0.36689,2.3119 1.70463,6.62913 1.38897,4.48256 4.04061,7.70242 5.93465,9.02824 1.89403,1.32583 7.1342,5.42957 7.1342,5.42957 -2.29413,7.36028 1.48974,13.6409 3.59867,19.00349 -1.29658,1.87356 -2.22163,3.85631 -2.96732,5.99778 l -0.50508,4.79823 c 0,0 8.39689,1.8309 8.7757,2.33598 0.37881,0.50507 1.38896,6.81853 2.71478,10.29093 1.32583,3.4724 1.70464,3.59866 1.70464,3.59866 0,0 6.43972,-2.77792 7.57614,-2.27284 1.13642,0.50508 1.4521,0.31567 1.4521,0.31567 0,0 -2.08344,-5.61897 -2.58852,-7.57614 -0.50508,-1.95717 -0.63135,-2.27284 -0.63135,-2.27284 0,0 15.08916,-1.26269 15.5311,-1.83091 0.44194,-0.56821 0,1.38896 0,3.40927 0,2.0203 -0.75761,5.68211 -0.75761,5.68211 0,0 6.43972,-0.31567 7.1342,0.25254 0.69448,0.56821 1.01015,1.19955 1.01015,1.19955 0,0 2.14657,-6.75539 1.57836,-11.17481 -0.56821,-4.41942 -1.45209,-10.29093 -1.45209,-10.29093 3.07834,-3.98705 5.95255,-7.99731 4.23001,-12.69004 -1.3105,-3.29646 -5.79305,-6.0979 -5.79305,-6.0979 0,0 -0.87203,-4.92539 -2.41444,-7.16035 -5.28372,-7.65614 -7.95495,-8.33376 -9.65958,-9.02824 -1.70463,-0.69448 -6.50286,-0.63135 -6.50286,-0.63135 0,0 0.12627,-3.91434 0.31568,-4.16688 0.1894,-0.25253 -3.4724,2.02031 -3.4724,2.02031 0,0 -1.13643,-1.13642 -1.01016,-2.71479 0.12627,-1.57836 0.25254,-2.14657 0.25254,-2.14657 0,0 -3.72494,2.77792 -3.8512,4.54569 -0.12627,1.76776 0.1894,2.84105 0.1894,2.84105 0,0 -1.89404,-3.283 -2.08344,-4.41942 -0.1894,-1.13642 -1.89404,1.13642 -1.95717,2.84106 -0.0631,1.70463 -0.12627,4.98763 -0.12627,4.98763 z"
         id="path4460"
         inkscape:connector-curvature="0"
         sodipodi:nodetypes="cccssccccsscscscsscscscccsscscscscsccc" />
      <path
         style="fill:#ffffff;fill-opacity:1;fill-rule:evenodd;stroke:#000000;stroke-width:1px;stroke-linecap:butt;stroke-linejoin:miter;stroke-opacity:1"
         d="m 659.81161,203.23955 c 0,0 -1.51786,-5.71429 -5.53572,-7.85714 -4.01785,-2.14286 -9.19642,-0.625 -10.08928,-0.26786 -1.63475,2.10979 3.23476,8.86828 4.31372,9.74746 3.21429,2.41071 6.17603,4.55357 6.17603,4.55357 0,0 0.93882,-1.53317 2.45668,-3.40817 1.51785,-1.875 2.67857,-2.76786 2.67857,-2.76786 z"
         id="path4462"
         inkscape:connector-curvature="0"
         sodipodi:nodetypes="cscccsc" />
      <path
         style="fill:#000000;fill-opacity:1;fill-rule:evenodd;stroke:none;stroke-width:1px;stroke-linecap:butt;stroke-linejoin:miter;stroke-opacity:1"
         d="m 664.54375,220.02526 c 0.41251,-2.79235 2.15956,-4.92892 4.46429,-5.71428 1.33928,-0.44643 2.94643,-0.35715 4.01785,0.35714 1.07143,0.71429 2.41072,2.5 2.41072,2.5 -4.07569,-2.61939 -5.20345,-1.96508 -7.14286,-0.71429 -1.69643,1.16072 -2.5,3.03572 -2.67857,3.57143 -0.17857,0.53572 -1.07143,0 -1.07143,0 z"
         id="path4464"
         inkscape:connector-curvature="0"
         sodipodi:nodetypes="ccsccsc" />
      <path
         style="fill:#000000;fill-opacity:1;fill-rule:evenodd;stroke:none;stroke-width:1px;stroke-linecap:butt;stroke-linejoin:miter;stroke-opacity:1"
         d="m 682.80268,214.04312 c 0,0 0.96141,-2.88778 3.0826,-3.86544 2.75897,-0.86429 4.75989,-0.0751 5.84597,3.24044 0,0 -1.82177,-2.26913 -2.80392,-2.26913 -3.18304,-0.61666 -3.71094,1.2827 -6.12465,2.89413 z"
         id="path4466"
         inkscape:connector-curvature="0"
         sodipodi:nodetypes="ccccc" />
      <path
         style="fill:#000000;fill-opacity:1;fill-rule:evenodd;stroke:none;stroke-width:1px;stroke-linecap:butt;stroke-linejoin:miter;stroke-opacity:1"
         d="m 672.57946,231.50964 c 1.60715,1.26116 4.05695,1.36303 6.42858,1.43973 l 0.26784,0.69197 c 0,0 -3.32398,-0.10555 -4.41965,-0.37946 -1.25,-0.3125 -3.08036,-0.80358 -3.86161,-2.23215 -0.70654,-1.29196 0.24554,-3.68304 0.24554,-3.68304 0.4701,2.10989 -0.2948,2.82684 1.3393,4.16295 z"
         id="path4468"
         inkscape:connector-curvature="0"
         sodipodi:nodetypes="cccsscc" />
      <path
         style="fill:#000000;fill-opacity:1;fill-rule:evenodd;stroke:none;stroke-width:1px;stroke-linecap:butt;stroke-linejoin:miter;stroke-opacity:1"
         d="m 685.23374,224.47423 c 1.4788,-3.49102 8.57132,-6.86458 10.95228,-2.21047 2.22892,5.20558 -4.81029,7.14752 -7.47648,6.27877 -2.12067,-0.99915 -4.55284,-2.16972 -3.4758,-4.0683 z"
         id="path4470"
         inkscape:connector-curvature="0"
         sodipodi:nodetypes="cccc" />
      <path
         style="fill:#ffffff;fill-opacity:1;fill-rule:evenodd;stroke:#000000;stroke-width:1px;stroke-linecap:butt;stroke-linejoin:miter;stroke-opacity:1"
         d="m 672.18995,246.91895 c 0,0 -1.26269,-3.4724 -0.63134,-5.3033 0.63134,-1.8309 0.31567,-2.71478 1.26269,-2.46225 0.94702,0.25254 5.05076,0.69448 7.26047,0.69448 2.20971,0 5.42957,-1.32582 6.25032,-1.26269 0.82075,0.0631 1.45209,0.25254 1.26269,1.76777 -0.1894,1.51523 0.37881,3.97748 0.0631,4.48255 -0.31568,0.50508 -3.53554,1.4521 -8.08123,1.6415 -4.54568,0.1894 -7.38674,0.44194 -7.38674,0.44194 z"
         id="path4472"
         inkscape:connector-curvature="0" />
      <path
         style="fill:#ffffff;fill-opacity:1;fill-rule:evenodd;stroke:#000000;stroke-width:1px;stroke-linecap:butt;stroke-linejoin:miter;stroke-opacity:1"
         d="m 652.85229,242.42108 0.83925,-5.16171 c 0,0 -7.38674,-0.63135 -12.0587,-2.20971 -4.67196,-1.57836 -7.00793,-2.14657 -6.88166,-1.6415 0.12627,0.50508 4.23001,3.91434 8.52316,5.55584 4.29315,1.6415 9.57795,3.45708 9.57795,3.45708 z"
         id="path4474"
         inkscape:connector-curvature="0"
         sodipodi:nodetypes="ccsssc" />
      <path
         style="fill:#000000;fill-opacity:1;fill-rule:evenodd;stroke:#000000;stroke-width:1.02645791px;stroke-linecap:butt;stroke-linejoin:miter;stroke-opacity:1"
         d="m 666.32311,258.85158 c 0,0 4.67924,-2.28792 6.42806,-2.47885 1.7488,-0.19092 3.11949,0.0148 2.59958,1.22671 -0.51993,1.21186 -0.85078,2.98063 -2.50506,3.91648 -1.65428,0.93587 -2.88317,0.89233 -4.58471,-0.16587 -1.70155,-1.05818 -1.93787,-2.49847 -1.93787,-2.49847 z"
         id="path4476"
         inkscape:connector-curvature="0" />
      <path
         style="fill:#000000;fill-opacity:1;fill-rule:evenodd;stroke:#000000;stroke-width:1px;stroke-linecap:butt;stroke-linejoin:miter;stroke-opacity:1"
         d="m 686.96344,254.6845 c 0,0 3.15672,-0.63135 5.61897,0.0631 2.46225,0.69448 2.48216,1.18951 1.67306,2.68323 -2.0809,2.59499 -6.02734,2.16321 -7.0395,-0.22098 -0.69448,-1.8309 -0.25253,-2.52538 -0.25253,-2.52538 z"
         id="path4478"
         inkscape:connector-curvature="0"
         sodipodi:nodetypes="cccccc" />
      <path
         style="fill:#000000;fill-opacity:1;fill-rule:evenodd;stroke:none;stroke-width:1px;stroke-linecap:butt;stroke-linejoin:miter;stroke-opacity:1"
         d="m 654.90089,166.18598 c 0,0 5.26786,-3.30357 8.125,-3.79465 2.85715,-0.49107 5.35715,-0.89285 5.98215,-0.3125 0.625,0.58036 0.75892,3.34822 0.0893,5.625 -1.59112,5.24777 -10.09699,5.06752 -13.39286,1.51786 -1.20536,-1.42857 -1.51786,-2.58928 -1.51786,-2.58928 z"
         id="path4480"
         inkscape:connector-curvature="0"
         sodipodi:nodetypes="csscccc" />
      <path
         style="fill:#000000;fill-opacity:1;fill-rule:evenodd;stroke:none;stroke-width:1px;stroke-linecap:butt;stroke-linejoin:miter;stroke-opacity:1"
         d="m 698.02589,147.25741 c 0.0893,-0.40179 3.57143,-3.88393 5.53572,-4.33036 1.96428,-0.44643 5.49107,-0.75893 5.9375,-0.53572 0.44643,0.22322 1.74107,3.97322 0.22321,5.80358 -1.51785,1.83035 -1.96428,3.21428 -3.70535,3.30357 -1.74108,0.0893 -5.66965,-0.71429 -6.69643,-1.60715 -1.02679,-0.89285 -1.875,-2.27678 -1.875,-2.27678 z"
         id="path4482"
         inkscape:connector-curvature="0" />
      <path
         style="fill:#603915;fill-opacity:1;fill-rule:evenodd;stroke:#603915;stroke-width:1px;stroke-linecap:butt;stroke-linejoin:miter;stroke-opacity:1"
         d="m 682.04989,182.36416 c 0,0 -3.11089,0.25768 -5.19433,2.90933 -2.08343,2.65165 -4.88564,8.04873 -4.88564,8.86948 0,0.82075 -0.0785,2.10958 -0.0785,2.10958 l 3.58149,-2.05093 -0.12627,3.09359 -0.25254,1.32582 c 0,0 4.98763,-0.0631 6.7554,0.63135 1.76777,0.69448 4.52216,2.36661 4.52216,2.36661 0,0 2.53807,-4.50235 3.23255,-8.03789 0.69448,-3.53553 0.79778,-8.71442 0.62752,-10.47901 0.0102,-3.80201 -4.47742,-1.57787 -8.18188,-0.73793 z"
         id="path4484"
         inkscape:connector-curvature="0"
         sodipodi:nodetypes="cssccccccsccc" />
      <path
         style="fill:#000000;fill-opacity:1;fill-rule:evenodd;stroke:none;stroke-width:1px;stroke-linecap:butt;stroke-linejoin:miter;stroke-opacity:1"
         d="m 612.07723,290.96276 1.18032,-0.11992 c 4.05294,-0.41177 6.08844,-2.6027 21.44166,-0.98638 9.9892,1.05162 19.08206,1.08689 22.2291,3.84482 2.36383,2.58387 4.7583,7.9311 2.79402,11.32396 -1.96429,3.39286 -0.80358,2.94643 -0.80358,2.94643 l 2.00893,0.3125 c 0,0 0.71428,-1.47321 1.20535,-2.36607 0.49107,-0.89286 0.99667,-2.57957 0.84822,-4.73214 -0.17858,-2.58929 -1.60714,-5.80357 -3.66071,-8.48214 -2.46686,-2.85873 -8.82059,-3.19152 -14.24108,-4.01786 -10.66964,-1.02678 -19.40324,-1.62967 -24.88641,-1.21937 -6.56251,0.49107 -7.99239,1.34378 -8.17097,1.38842 -0.52909,1.09582 -0.78775,1.34146 0.0551,2.10775 z"
         id="path4486"
         inkscape:connector-curvature="0"
         sodipodi:nodetypes="csscsccssccsccc" />
      <path
         style="fill:#603915;fill-opacity:1;fill-rule:evenodd;stroke:none;stroke-width:1px;stroke-linecap:butt;stroke-linejoin:miter;stroke-opacity:1"
         d="m 634.57756,43.641545 c 2.35175,-0.773401 4.90354,-0.984761 9.80163,-0.17362 l 4.82214,0.97699 1.30191,-1.13483 c -2.08342,-0.94788 -12.79474,-3.052211 -15.63939,-0.896791 -0.31307,0.23722 -0.16234,0.886271 -0.28629,1.228251 z"
         id="path4488"
         inkscape:connector-curvature="0"
         sodipodi:nodetypes="csccsc" />
      <text
         xml:space="preserve"
         style="font-style:normal;font-weight:normal;font-size:98.34262085px;line-height:125%;font-family:sans-serif;letter-spacing:0px;word-spacing:0px;fill:#ffffff;fill-opacity:1;stroke:#000000;stroke-width:3;stroke-linecap:butt;stroke-linejoin:miter;stroke-miterlimit:4;stroke-dasharray:none;stroke-opacity:1;"
         x="412.50259"
         y="359.08795"
         id="text4490"
         sodipodi:linespacing="125%"><tspan
           sodipodi:role="line"
           id="tspan4492"
           x="412.50259"
           y="359.08795"
           style="font-style:normal;font-variant:normal;font-weight:normal;font-stretch:normal;font-family:'Birthday Boy';-inkscape-font-specification:'Birthday Boy';fill:#ffffff;fill-opacity:1;stroke:#000000;stroke-width:3;stroke-miterlimit:4;stroke-dasharray:none;stroke-opacity:1;">Kanguru</tspan></text>
      <path
         sodipodi:nodetypes="cssccccccscc"
         inkscape:connector-curvature="0"
         id="path4494"
         d="m 683.18216,182.79276 c 0,0 -2.20501,0.15066 -4.29751,2.49178 -2.09251,2.34114 -5.10999,7.23181 -5.20102,8.01274 -0.0911,0.78095 -0.30176,2.00041 -0.30176,2.00041 l 3.31892,-1.63878 -0.45219,2.93252 -0.36506,1.23946 c 0,0 4.31213,0.37542 5.76095,1.1905 1.44882,0.81513 3.64081,2.64661 3.64081,2.64661 l 3.6819,-7.36581 c 2.40822,-4.81778 0.68659,-11.33218 0.68659,-11.33218 0.43023,-3.61674 -3.18092,-0.65303 -6.47163,-0.17725 z"
         style="fill:#ffffff;fill-opacity:1;fill-rule:evenodd;stroke:none;stroke-width:1px;stroke-linecap:butt;stroke-linejoin:miter;stroke-opacity:1" />
    </g>
    <g
       id="g4322"
       inkscape:export-filename="/home/salamflamo/Pictures/kanguru-tshirt/sablon/2.png"
       inkscape:export-xdpi="108"
       inkscape:export-ydpi="108">
      <path
         style="fill:#000000;fill-opacity:1;fill-rule:evenodd;stroke:#ffffff;stroke-width:3;stroke-linecap:butt;stroke-linejoin:miter;stroke-miterlimit:4;stroke-dasharray:none;stroke-opacity:1"
         d="m 63.315091,764.45106 c 0,0 0.96418,-1.1305 3.11075,-1.88811 28.40825,-6.11138 65.569999,-21.23776 63.387069,-53.66436 -0.35787,-8.49512 -0.13719,-17.19537 2.27285,-25.38008 4.48381,-15.13904 18.30515,-33.6998 30.80965,-39.26968 6.2949,-9.34454 11.82034,-19.117 17.80394,-28.66308 0,0 4.29315,-7.70241 4.67195,-9.59645 1.9641,-7.44081 5.73569,-14.21576 9.09138,-21.08693 l 4.04061,-7.44988 c -3.99338,-6.37785 -7.87374,-13.15731 -9.84899,-20.45559 -2.03795,-9.87812 -0.69541,-18.19364 3.283,-27.14785 l 2.98493,-6.29085 c 0,0 -1.78538,-1.09589 -4.31076,-2.98992 -2.52538,-1.89404 -7.3236,-7.70242 -8.14435,-8.83884 -0.82075,-1.13642 -5.05077,-8.27062 -5.68211,-11.55362 -0.63135,-3.28299 -1.19956,-11.55362 -1.19956,-11.55362 0,0 7.57615,-1.89403 13.63706,-0.3788 8.77791,1.9795 14.47696,7.64193 17.74081,15.9099 0.75761,2.08344 2.39911,9.40704 2.39911,9.40704 0,0 3.09359,-1.95717 6.12405,-2.65165 3.03045,-0.69448 4.98763,-1.26269 4.98763,-1.26269 -0.75173,-6.42577 -1.76692,-13.46147 0.82075,-19.63483 4.42119,-8.78386 11.36825,-11.50229 17.99334,-13.5108 6.77725,10.17653 8.71051,23.42018 0.69448,32.82996 -0.69448,1.19956 -1.19956,1.6415 -1.19956,1.6415 0,0 6.12405,1.8309 9.15451,4.92449 3.03046,3.09359 8.7757,9.28078 10.29093,10.79601 4.87534,7.85968 15.22729,9.88784 20.89753,16.41498 4.03139,4.62649 6.39906,9.2607 5.55584,15.46796 -0.90337,7.9843 -5.73202,16.42566 -11.99557,20.39245 -7.72412,4.07299 -16.58614,6.01541 -25.31694,5.05076 -1.8309,-0.25253 -8.33376,-1.07328 -8.33376,-1.07328 l 8.83883,21.84454 c 11.41453,-2.97477 23.91117,-7.83287 35.41848,-6.94479 5.58859,0.31487 10.33844,3.51065 12.56377,8.64943 0.88388,2.20971 1.45209,3.53553 1.38896,5.42957 -1.70155,8.1211 -7.85112,8.64187 -11.93243,3.8512 -1.89403,-2.33597 -2.90419,-5.80837 -2.90419,-5.80837 -9.53258,1.02123 -18.40098,4.77217 -27.71606,7.82868 l -0.31567,0.44194 c 0,0 9.34391,19.95051 9.84899,21.52888 0.50507,1.57836 3.6618,10.41719 3.6618,10.41719 0,0 7.63928,-2.14657 8.71257,-1.89403 1.07328,0.25254 1.01015,6.50286 0.69448,8.83883 -0.31568,2.33598 -2.20971,7.82869 -2.90419,8.90197 -0.69448,1.07329 -2.08344,2.65165 -2.08344,2.65165 0,0 3.59867,3.59867 4.79822,5.17703 1.19956,1.57837 3.15673,5.74525 3.09359,6.88167 -0.0631,1.13642 0.12627,1.76777 0.12627,1.76777 0,0 4.29315,3.15672 5.42957,4.86135 1.13642,1.70464 1.95717,5.17704 1.32583,6.81853 -0.63135,1.6415 -4.23002,7.26048 -4.23002,7.26048 l 1.53549,1.52913 0.5163,1.33255 c 0,0 1.2867,5.95398 1.48814,8.84602 0.20341,2.92027 -0.0338,7.74302 -4.11348,12.82333 -10.90236,11.48893 -17.94605,15.01439 -37.57846,15.48024 -3.52678,-0.44643 -8.75,-1.33929 -9.0625,-1.38393 -4.3144,1.56418 -8.60772,3.21256 -12.85714,4.95536 0,0 -0.44643,5.75893 -0.49107,6.60714 -0.0446,0.84821 0.75893,0.71429 0.75893,0.71429 0,0 15,-1.29465 17.8125,-1.29465 2.8125,0 20.625,-0.26785 20.625,-0.26785 0,0 17.05357,0.84821 19.77678,1.51785 2.72322,0.66965 7.85715,1.20536 10.625,3.92857 l 2.76786,2.72322 c 0,0 1.29464,1.78571 0.84822,3.92857 -0.44643,2.14286 -1.78572,5.53571 -4.01786,7.36607 -2.23214,1.83036 -4.50893,4.01786 -8.52679,4.82143 -4.01785,0.80357 -8.48214,1.51786 -8.97321,1.51786 -0.49107,0 -14.95536,0.22321 -14.95536,0.22321 l -10.84821,-0.84821 -1.65179,-0.13393 c 0,0 -0.49107,1.02678 -2.5,2.45536 -2.00893,1.42857 -6.96428,4.01785 -10.53571,4.46428 -3.57143,0.44643 -13.21429,1.02679 -18.70536,0.66964 -5.49107,-0.35714 -27.5,-3.52678 -27.5,-3.52678 l -27.5,-5.71429 c 0,0 -3.21429,-0.26785 -4.95536,-0.71428 -1.74107,-0.44643 -4.46428,-0.53572 -4.41964,-1.96429 0.0446,-1.42857 0.71429,-2.72321 2.00893,-4.77678 1.29464,-2.05358 4.0625,-6.875 4.375,-10.35715 0.3125,-3.48214 0.84821,-8.03571 -0.0446,-10.44643 -0.89286,-2.41071 -2.54465,-5.08928 -2.54465,-5.08928 0,0 -7.58928,9.82143 -10.98214,12.54464 -3.39286,2.72322 -14.50893,9.50893 -17.85714,10.66964 -3.34822,1.16072 -11.78572,3.97322 -16.25,4.6875 -4.46429,0.71429 -11.696429,1.20536 -17.098219,1.11608 -5.40178,-0.0893 -15.75892,-0.53572 -18.75,-1.16072 -2.99107,-0.625 -7.14285,-1.65178 -8.25892,-2.54464 -1.11608,-0.89286 -1.69643,-1.69643 -1.69643,-1.69643 z"
         id="path4528"
         inkscape:connector-curvature="0"
         sodipodi:nodetypes="ccccccccccccsssccccscccccsccccccccccccccscssscsccsscccsccccccscsscsssscccsssccscssccsssssscc" />
      <path
         style="fill:#ffffff;fill-rule:evenodd;stroke:#ffffff;stroke-width:3;stroke-linecap:butt;stroke-linejoin:miter;stroke-miterlimit:4;stroke-dasharray:none;stroke-opacity:1"
         d="m 176.17223,745.25463 c 0,0 10.89286,2.05357 14.01786,2.23214 3.125,0.17858 11.42857,0.35715 11.42857,0.35715 l 0.44643,1.60714 c 0,0 -0.80358,3.66071 -1.42858,5 -0.625,1.33929 -1.33928,2.32143 -1.33928,2.32143 0,0 -7.5,0.26786 -10.44643,0.53571 -2.94643,0.26786 -9.375,0.80357 -10.89286,1.16072 -1.51785,0.35714 -2.32143,0.35714 -2.32143,0.35714 0,0 1.60715,-2.32143 1.42858,-5.89286 -0.17858,-3.57143 -0.89286,-7.67857 -0.89286,-7.67857 z"
         id="path4530"
         inkscape:connector-curvature="0" />
      <path
         style="fill:#ffffff;fill-opacity:1;fill-rule:evenodd;stroke:none;stroke-width:1px;stroke-linecap:butt;stroke-linejoin:miter;stroke-opacity:1"
         d="m 183.12382,494.92441 c 0,0 -1.87501,7.64794 1.60715,12.38008 4.83993,7.09324 8.40022,8.78766 14.74483,12.14657 l 5.17857,-3.66071 c 0.34721,-4.00613 -2.14623,-13.7888 -7.09953,-17.24112 -5.78098,-3.75199 -6.22429,-3.36906 -14.43102,-3.62482 z"
         id="path4532"
         inkscape:connector-curvature="0"
         sodipodi:nodetypes="cccccc" />
      <path
         style="fill:#ffffff;fill-opacity:1;fill-rule:evenodd;stroke:none;stroke-width:1px;stroke-linecap:butt;stroke-linejoin:miter;stroke-opacity:1"
         d="m 215.77058,539.5402 c 0.0316,-0.15783 0.36759,-4.52905 5.87918,-6.1601 5.01458,-0.85695 5.72965,1.07279 8.5155,3.31905 0,0 -0.28411,0.12627 -0.0631,0 0.22097,-0.12627 0.78918,-0.12627 -0.12627,-1.32583 -0.91545,-1.19955 -2.02441,-3.45932 -4.89292,-3.7565 -3.92687,-0.59112 -9.15982,1.22343 -9.81742,5.398 -0.22097,1.8309 -0.22097,3.03046 0.0316,3.283 0.25254,0.25254 0.47351,-0.75762 0.47351,-0.75762 z"
         id="path4534"
         inkscape:connector-curvature="0"
         sodipodi:nodetypes="ccccsccccc" />
      <path
         style="fill:#ffffff;fill-opacity:1;fill-rule:evenodd;stroke:none;stroke-width:1px;stroke-linecap:butt;stroke-linejoin:miter;stroke-opacity:1"
         d="m 248.15566,526.1418 c 1.85288,-0.13935 3.24128,-0.3658 5.57765,1.27278 1.29465,0.95982 2.07953,1.89172 2.39203,1.60154 0.3125,-0.29018 0.67189,-0.59185 -0.28797,-1.32846 -0.95982,-0.7366 -2.27902,-2.12502 -4.33035,-2.54464 -4.25986,-0.7901 -8.08988,1.10765 -7.58929,5.33482 0.13393,0.91518 -0.0223,0.84822 0.40179,0.87054 0.65456,-2.77718 1.09541,-4.52006 3.83614,-5.20658 z"
         id="path4536"
         inkscape:connector-curvature="0"
         sodipodi:nodetypes="ccsccccc" />
      <path
         style="fill:#ffffff;fill-opacity:1;fill-rule:evenodd;stroke:none;stroke-width:1px;stroke-linecap:butt;stroke-linejoin:miter;stroke-opacity:1"
         d="m 270.09785,547.08478 c 5.74524,-0.56821 8.83883,0.0947 10.00682,1.95717 2.87694,6.40888 -6.24444,10.06962 -10.8907,10.25936 -3.56711,0.0631 -5.39801,-0.91545 -6.06092,-1.64149 -4.81371,-5.71198 3.906,-10.17204 6.9448,-10.57504 z"
         id="path4538"
         inkscape:connector-curvature="0"
         sodipodi:nodetypes="ccccc" />
      <path
         style="fill:#ffffff;fill-opacity:1;fill-rule:evenodd;stroke:none;stroke-width:1px;stroke-linecap:butt;stroke-linejoin:miter;stroke-opacity:1"
         d="m 238.00259,566.63856 c 0,0 2.00892,2.67857 5.44642,3.16964 3.4375,0.49107 7.36608,0.625 7.36608,0.625 0,0 1.29464,-0.0893 0.35714,0.89286 -0.9375,0.98214 -5.3125,1.11607 -6.16072,1.07143 -0.84821,-0.0446 -4.24107,-1.07143 -5.40178,-2.27679 -1.16072,-1.20535 -2.1875,-1.83035 -2.27679,-2.72321 -0.0893,-0.89286 0.13393,-1.74107 0.53572,-1.25 0.40178,0.49107 0.13393,0.49107 0.13393,0.49107 z"
         id="path4540"
         inkscape:connector-curvature="0" />
      <path
         style="fill:#ffffff;fill-opacity:1;fill-rule:evenodd;stroke:none;stroke-width:1px;stroke-linecap:butt;stroke-linejoin:miter;stroke-opacity:1"
         d="m 209.56509,603.02249 c 0,0 -4.55358,8.30357 -4.28572,11.25 0.26786,2.94643 0.71429,5.44643 0.80357,4.01786 0.0893,-1.42858 1.25,-5.71429 2.32143,-9.01786 1.07143,-3.30357 1.78572,-4.46429 2.05357,-5.44643 0.26786,-0.98214 -0.89285,-0.80357 -0.89285,-0.80357 z"
         id="path4542"
         inkscape:connector-curvature="0" />
      <path
         style="fill:#ffffff;fill-opacity:1;fill-rule:evenodd;stroke:none;stroke-width:1px;stroke-linecap:butt;stroke-linejoin:miter;stroke-opacity:1"
         d="m 222.24367,630.29928 c 0,0 -17.50001,5.49107 -23.75002,5.22321 -9.23216,-0.0174 -11.64529,-10.48503 -10.08928,-22.32143 0,0 -1.78571,0.625 -1.875,4.46429 -0.0893,3.83928 0,12.14285 2.05357,15.44642 4.85211,8.05349 11.36752,5.71582 19.55358,3.66072 4.68229,-1.24458 9.20718,-2.61853 13.92857,-5.22322 0.625,-0.44642 0.17858,-1.24999 0.17858,-1.24999 z"
         id="path4544"
         inkscape:connector-curvature="0"
         sodipodi:nodetypes="cccscccc" />
      <path
         style="fill:#ffffff;fill-opacity:1;fill-rule:evenodd;stroke:none;stroke-width:1px;stroke-linecap:butt;stroke-linejoin:miter;stroke-opacity:1"
         d="m 176.3508,651.77249 c 0,0 12.85715,1.07143 17.32143,5.71429 14.8059,12.1197 13.17976,23.95985 10.44643,37.32142 -7.5893,24.01786 -11.69644,25.17857 -11.69644,25.17857 l -7.67856,9.10715 c 22.39828,-33.4813 23.68614,-68.73196 -8.39286,-77.32143 z"
         id="path4546"
         inkscape:connector-curvature="0"
         sodipodi:nodetypes="cccccc" />
      <path
         style="fill:#ffffff;fill-opacity:1;fill-rule:evenodd;stroke:none;stroke-width:1px;stroke-linecap:butt;stroke-linejoin:miter;stroke-opacity:1"
         d="m 140.23976,689.16789 c 0,0 -5.38066,13.31177 -1.11475,23.36068 5.55982,10.935 2.13142,5.13192 12.04722,22.10106 0,0 -11.44652,-13.43247 -14.46429,-21.78571 -2.40411,-6.65463 -2.18247,-15.28318 0.13896,-19.03318 2.32143,-3.75 3.39286,-4.64285 3.39286,-4.64285 z"
         id="path4548"
         inkscape:connector-curvature="0"
         sodipodi:nodetypes="cccssc" />
      <path
         style="fill:#ffffff;fill-opacity:1;fill-rule:evenodd;stroke:none;stroke-width:1px;stroke-linecap:butt;stroke-linejoin:miter;stroke-opacity:1"
         d="m 174.89794,742.4371 c 0.17857,-0.35714 2.88143,-1.73604 4.22072,-2.45033 1.33928,-0.71428 12.67857,-8.03571 15.53571,-10.89285 2.85714,-2.85715 12.58929,-14.91072 16.33929,-22.5 3.75,-7.58929 8.57143,-17.14286 9.91071,-22.41072 1.33929,-5.26785 3.125,-16.69643 3.39286,-20.26785 0.26786,-3.57143 -0.71429,-21.07143 -0.71429,-21.07143 l -1.42857,-10.80357 0.26786,-1.60715 c 0,0 4.55357,-1.51785 9.82143,-2.05357 5.26785,-0.53571 8.30357,-0.89286 8.30357,-0.89286 l 0.625,6.38393 c 4.53857,5.94022 12.94354,5.20281 15.35079,-1.65178 0.22322,-2.54464 -1.95793,-8.83929 -3.47579,-10.80357 -1.51786,-1.96429 -3.75,-4.46429 -8.125,-5.35715 -4.375,-0.89285 -7.32143,-0.89285 -11.42857,-0.71428 -4.10715,0.17857 -13.83929,1.16071 -13.83929,1.16071 0,0 -1.33928,-0.44643 -1.42857,-9.19643 -0.0893,-8.75 1.78571,-19.82142 2.85714,-22.94642 1.07143,-3.125 2.73723,-4.07651 2.73723,-4.07651 l 13.42611,1.40056 8.51278,21.46556 7.63262,13.8546 14.11983,32.35578 14.375,51.87501 2.44911,2.10597 c 0,0 2.05728,11.20097 0.28952,16.12546 -8.80575,13.87126 -17.96964,19.33636 -35.86677,20.99765 -1.95717,0.25254 -10.73286,-1.4521 -11.80615,-1.8309 -1.07329,-0.37881 -13.32139,4.54568 -13.32139,4.54568 0,0 -6.50286,2.39911 -11.80616,2.96733 -5.3033,0.56821 -15.02602,0.1894 -17.17259,0.25253 -2.14657,0.0631 -15.34169,-2.27284 -15.34169,-2.27284 l -4.64209,-0.73595 z"
         id="path4550"
         inkscape:connector-curvature="0"
         sodipodi:nodetypes="cssssscccscccssscsscccccccccscscccc" />
      <path
         style="fill:#000000;fill-opacity:1;fill-rule:evenodd;stroke:#ffffff;stroke-width:1px;stroke-linecap:butt;stroke-linejoin:miter;stroke-opacity:1"
         d="m 249.83166,668.8713 c -4.63008,-8.42031 -9.2112,-13.73838 -19.3823,-11.99556 -4.23001,0.82074 -5.17703,2.08343 -5.17703,2.08343 0,0 0.36689,2.3119 1.70463,6.62913 1.38897,4.48256 4.04061,7.70242 5.93465,9.02824 1.89403,1.32583 7.1342,5.42957 7.1342,5.42957 -2.29413,7.36028 1.48974,13.6409 3.59867,19.00349 -1.29658,1.87356 -2.22163,3.85631 -2.96732,5.99778 l -0.50508,4.79823 c 0,0 8.39689,1.8309 8.7757,2.33598 0.37881,0.50507 1.38896,6.81853 2.71478,10.29093 1.32583,3.4724 1.70464,3.59866 1.70464,3.59866 0,0 6.43972,-2.77792 7.57614,-2.27284 1.13642,0.50508 1.4521,0.31567 1.4521,0.31567 0,0 -2.08344,-5.61897 -2.58852,-7.57614 -0.50508,-1.95717 -0.63135,-2.27284 -0.63135,-2.27284 0,0 15.08916,-1.26269 15.5311,-1.83091 0.44194,-0.56821 0,1.38896 0,3.40927 0,2.0203 -0.75761,5.68211 -0.75761,5.68211 0,0 6.43972,-0.31567 7.1342,0.25254 0.69448,0.56821 1.01015,1.19955 1.01015,1.19955 0,0 2.14657,-6.75539 1.57836,-11.17481 -0.56821,-4.41942 -1.45209,-10.29093 -1.45209,-10.29093 3.07834,-3.98705 5.95255,-7.99731 4.23001,-12.69004 -1.3105,-3.29646 -5.79305,-6.0979 -5.79305,-6.0979 0,0 -0.87203,-4.92539 -2.41444,-7.16035 -5.28372,-7.65614 -7.95495,-8.33376 -9.65958,-9.02824 -1.70463,-0.69448 -6.50286,-0.63135 -6.50286,-0.63135 0,0 0.12627,-3.91434 0.31568,-4.16688 0.1894,-0.25253 -3.4724,2.02031 -3.4724,2.02031 0,0 -1.13643,-1.13642 -1.01016,-2.71479 0.12627,-1.57836 0.25254,-2.14657 0.25254,-2.14657 0,0 -3.72494,2.77792 -3.8512,4.54569 -0.12627,1.76776 0.1894,2.84105 0.1894,2.84105 0,0 -1.89404,-3.283 -2.08344,-4.41942 -0.1894,-1.13642 -1.89404,1.13642 -1.95717,2.84106 -0.0631,1.70463 -0.12627,4.98763 -0.12627,4.98763 z"
         id="path4552"
         inkscape:connector-curvature="0"
         sodipodi:nodetypes="cccssccccsscscscsscscscccsscscscscsccc" />
      <path
         style="fill:#ffffff;fill-opacity:1;fill-rule:evenodd;stroke:#ffffff;stroke-width:1px;stroke-linecap:butt;stroke-linejoin:miter;stroke-opacity:1"
         d="m 246.79723,670.52249 c 0,0 -1.51786,-5.71429 -5.53572,-7.85714 -4.01785,-2.14286 -9.19642,-0.625 -10.08928,-0.26786 -1.63475,2.10979 3.23476,8.86828 4.31372,9.74746 3.21429,2.41071 6.17603,4.55357 6.17603,4.55357 0,0 0.93882,-1.53317 2.45668,-3.40817 1.51785,-1.875 2.67857,-2.76786 2.67857,-2.76786 z"
         id="path4554"
         inkscape:connector-curvature="0"
         sodipodi:nodetypes="cscccsc" />
      <path
         style="fill:#ffffff;fill-opacity:1;fill-rule:evenodd;stroke:none;stroke-width:1px;stroke-linecap:butt;stroke-linejoin:miter;stroke-opacity:1"
         d="m 251.52937,687.3082 c 0.41251,-2.79235 2.15956,-4.92892 4.46429,-5.71428 1.33928,-0.44643 2.94643,-0.35715 4.01785,0.35714 1.07143,0.71429 2.41072,2.5 2.41072,2.5 -4.07569,-2.61939 -5.20345,-1.96508 -7.14286,-0.71429 -1.69643,1.16072 -2.5,3.03572 -2.67857,3.57143 -0.17857,0.53572 -1.07143,0 -1.07143,0 z"
         id="path4556"
         inkscape:connector-curvature="0"
         sodipodi:nodetypes="ccsccsc" />
      <path
         style="fill:#ffffff;fill-opacity:1;fill-rule:evenodd;stroke:none;stroke-width:1px;stroke-linecap:butt;stroke-linejoin:miter;stroke-opacity:1"
         d="m 269.7883,681.32606 c 0,0 0.96141,-2.88778 3.0826,-3.86544 2.75897,-0.86429 4.75989,-0.0751 5.84597,3.24044 0,0 -1.82177,-2.26913 -2.80392,-2.26913 -3.18304,-0.61666 -3.71094,1.2827 -6.12465,2.89413 z"
         id="path4558"
         inkscape:connector-curvature="0"
         sodipodi:nodetypes="ccccc" />
      <path
         style="fill:#ffffff;fill-opacity:1;fill-rule:evenodd;stroke:none;stroke-width:1px;stroke-linecap:butt;stroke-linejoin:miter;stroke-opacity:1"
         d="m 259.56508,698.79258 c 1.60715,1.26116 4.05695,1.36303 6.42858,1.43973 l 0.26784,0.69197 c 0,0 -3.32398,-0.10555 -4.41965,-0.37946 -1.25,-0.3125 -3.08036,-0.80358 -3.86161,-2.23215 -0.70654,-1.29196 0.24554,-3.68304 0.24554,-3.68304 0.4701,2.10989 -0.2948,2.82684 1.3393,4.16295 z"
         id="path4560"
         inkscape:connector-curvature="0"
         sodipodi:nodetypes="cccsscc" />
      <path
         style="fill:#ffffff;fill-opacity:1;fill-rule:evenodd;stroke:none;stroke-width:1px;stroke-linecap:butt;stroke-linejoin:miter;stroke-opacity:1"
         d="m 272.21936,691.75717 c 1.4788,-3.49102 8.57132,-6.86458 10.95228,-2.21047 2.22892,5.20558 -4.81029,7.14752 -7.47648,6.27877 -2.12067,-0.99915 -4.55284,-2.16972 -3.4758,-4.0683 z"
         id="path4562"
         inkscape:connector-curvature="0"
         sodipodi:nodetypes="cccc" />
      <path
         style="fill:#ffffff;fill-opacity:1;fill-rule:evenodd;stroke:#ffffff;stroke-width:1px;stroke-linecap:butt;stroke-linejoin:miter;stroke-opacity:1"
         d="m 259.17557,714.20189 c 0,0 -1.26269,-3.4724 -0.63134,-5.3033 0.63134,-1.8309 0.31567,-2.71478 1.26269,-2.46225 0.94702,0.25254 5.05076,0.69448 7.26047,0.69448 2.20971,0 5.42957,-1.32582 6.25032,-1.26269 0.82075,0.0631 1.45209,0.25254 1.26269,1.76777 -0.1894,1.51523 0.37881,3.97748 0.0631,4.48255 -0.31568,0.50508 -3.53554,1.4521 -8.08123,1.6415 -4.54568,0.1894 -7.38674,0.44194 -7.38674,0.44194 z"
         id="path4564"
         inkscape:connector-curvature="0" />
      <path
         style="fill:#ffffff;fill-opacity:1;fill-rule:evenodd;stroke:#ffffff;stroke-width:1px;stroke-linecap:butt;stroke-linejoin:miter;stroke-opacity:1"
         d="m 239.83791,709.70402 0.83925,-5.16171 c 0,0 -7.38674,-0.63135 -12.0587,-2.20971 -4.67196,-1.57836 -7.00793,-2.14657 -6.88166,-1.6415 0.12627,0.50508 4.23001,3.91434 8.52316,5.55584 4.29315,1.6415 9.57795,3.45708 9.57795,3.45708 z"
         id="path4566"
         inkscape:connector-curvature="0"
         sodipodi:nodetypes="ccsssc" />
      <path
         style="fill:#ffffff;fill-opacity:1;fill-rule:evenodd;stroke:#ffffff;stroke-width:1.02645791px;stroke-linecap:butt;stroke-linejoin:miter;stroke-opacity:1"
         d="m 253.30873,726.13452 c 0,0 4.67924,-2.28792 6.42806,-2.47885 1.7488,-0.19092 3.11949,0.0148 2.59958,1.22671 -0.51993,1.21186 -0.85078,2.98063 -2.50506,3.91648 -1.65428,0.93587 -2.88317,0.89233 -4.58471,-0.16587 -1.70155,-1.05818 -1.93787,-2.49847 -1.93787,-2.49847 z"
         id="path4568"
         inkscape:connector-curvature="0" />
      <path
         style="fill:#ffffff;fill-opacity:1;fill-rule:evenodd;stroke:#ffffff;stroke-width:1px;stroke-linecap:butt;stroke-linejoin:miter;stroke-opacity:1"
         d="m 273.94906,721.96744 c 0,0 3.15672,-0.63135 5.61897,0.0631 2.46225,0.69448 2.48216,1.18951 1.67306,2.68323 -2.0809,2.59499 -6.02734,2.16321 -7.0395,-0.22098 -0.69448,-1.8309 -0.25253,-2.52538 -0.25253,-2.52538 z"
         id="path4570"
         inkscape:connector-curvature="0"
         sodipodi:nodetypes="cccccc" />
      <path
         style="fill:#ffffff;fill-opacity:1;fill-rule:evenodd;stroke:none;stroke-width:1px;stroke-linecap:butt;stroke-linejoin:miter;stroke-opacity:1"
         d="m 241.88651,633.46892 c 0,0 5.26786,-3.30357 8.125,-3.79465 2.85715,-0.49107 5.35715,-0.89285 5.98215,-0.3125 0.625,0.58036 0.75892,3.34822 0.0893,5.625 -1.59112,5.24777 -10.09699,5.06752 -13.39286,1.51786 -1.20536,-1.42857 -1.51786,-2.58928 -1.51786,-2.58928 z"
         id="path4572"
         inkscape:connector-curvature="0"
         sodipodi:nodetypes="csscccc" />
      <path
         style="fill:#ffffff;fill-opacity:1;fill-rule:evenodd;stroke:none;stroke-width:1px;stroke-linecap:butt;stroke-linejoin:miter;stroke-opacity:1"
         d="m 285.01151,614.54035 c 0.0893,-0.40179 3.57143,-3.88393 5.53572,-4.33036 1.96428,-0.44643 5.49107,-0.75893 5.9375,-0.53572 0.44643,0.22322 1.74107,3.97322 0.22321,5.80358 -1.51785,1.83035 -1.96428,3.21428 -3.70535,3.30357 -1.74108,0.0893 -5.66965,-0.71429 -6.69643,-1.60715 -1.02679,-0.89285 -1.875,-2.27678 -1.875,-2.27678 z"
         id="path4574"
         inkscape:connector-curvature="0" />
      <path
         style="fill:#ffffff;fill-opacity:1;fill-rule:evenodd;stroke:#ffffff;stroke-width:1px;stroke-linecap:butt;stroke-linejoin:miter;stroke-opacity:1"
         d="m 269.03551,649.6471 c 0,0 -3.11089,0.25768 -5.19433,2.90933 -2.08343,2.65165 -4.88564,8.04873 -4.88564,8.86948 0,0.82075 -0.0785,2.10958 -0.0785,2.10958 l 3.58149,-2.05093 -0.12627,3.09359 -0.25254,1.32582 c 0,0 4.98763,-0.0631 6.7554,0.63135 1.76777,0.69448 4.52216,2.36661 4.52216,2.36661 0,0 2.53807,-4.50235 3.23255,-8.03789 0.69448,-3.53553 0.79778,-8.71442 0.62752,-10.47901 0.0102,-3.80201 -4.47742,-1.57787 -8.18188,-0.73793 z"
         id="path4576"
         inkscape:connector-curvature="0"
         sodipodi:nodetypes="cssccccccsccc" />
      <path
         style="fill:#ffffff;fill-opacity:1;fill-rule:evenodd;stroke:none;stroke-width:1px;stroke-linecap:butt;stroke-linejoin:miter;stroke-opacity:1"
         d="m 199.06285,758.2457 1.18032,-0.11992 c 4.05294,-0.41177 6.08844,-2.6027 21.44166,-0.98638 9.9892,1.05162 19.08206,1.08689 22.2291,3.84482 2.36383,2.58387 4.7583,7.9311 2.79402,11.32396 -1.96429,3.39286 -0.80358,2.94643 -0.80358,2.94643 l 2.00893,0.3125 c 0,0 0.71428,-1.47321 1.20535,-2.36607 0.49107,-0.89286 0.99667,-2.57957 0.84822,-4.73214 -0.17858,-2.58929 -1.60714,-5.80357 -3.66071,-8.48214 -2.46686,-2.85873 -8.82059,-3.19152 -14.24108,-4.01786 -10.66964,-1.02678 -19.40324,-1.62967 -24.88641,-1.21937 -6.56251,0.49107 -7.99239,1.34378 -8.17097,1.38842 -0.52909,1.09582 -0.78775,1.34146 0.0551,2.10775 z"
         id="path4578"
         inkscape:connector-curvature="0"
         sodipodi:nodetypes="csscsccssccsccc" />
      <path
         style="fill:#ffffff;fill-opacity:1;fill-rule:evenodd;stroke:none;stroke-width:1px;stroke-linecap:butt;stroke-linejoin:miter;stroke-opacity:1"
         d="m 221.56318,510.92448 c 2.35175,-0.7734 4.90354,-0.98476 9.80163,-0.17362 l 4.82214,0.97699 1.30191,-1.13483 c -2.08342,-0.94788 -12.79474,-3.05221 -15.63939,-0.89679 -0.31307,0.23722 -0.16234,0.88627 -0.28629,1.22825 z"
         id="path4580"
         inkscape:connector-curvature="0"
         sodipodi:nodetypes="csccsc" />
      <text
         xml:space="preserve"
         style="font-style:normal;font-weight:normal;font-size:98.34262085px;line-height:125%;font-family:sans-serif;letter-spacing:0px;word-spacing:0px;fill:#000000;fill-opacity:1;stroke:#ffffff;stroke-width:3;stroke-linecap:butt;stroke-linejoin:miter;stroke-miterlimit:4;stroke-dasharray:none;stroke-opacity:1;"
         x="-0.5117864"
         y="826.37091"
         id="text4582"
         sodipodi:linespacing="125%"><tspan
           sodipodi:role="line"
           id="tspan4584"
           x="-0.5117864"
           y="826.37091"
           style="font-style:normal;font-variant:normal;font-weight:normal;font-stretch:normal;font-family:'Birthday Boy';-inkscape-font-specification:'Birthday Boy';fill:#000000;fill-opacity:1;stroke:#ffffff;stroke-width:3;stroke-miterlimit:4;stroke-dasharray:none;stroke-opacity:1;">Kanguru</tspan></text>
      <path
         sodipodi:nodetypes="cssccccccscc"
         inkscape:connector-curvature="0"
         id="path4587"
         d="m 270.16778,650.0757 c 0,0 -2.20501,0.15066 -4.29751,2.49178 -2.09251,2.34114 -5.10999,7.23181 -5.20102,8.01274 -0.0911,0.78095 -0.30176,2.00041 -0.30176,2.00041 l 3.31892,-1.63878 -0.45219,2.93252 -0.36506,1.23946 c 0,0 4.31213,0.37542 5.76095,1.1905 1.44882,0.81513 3.64081,2.64661 3.64081,2.64661 l 3.6819,-7.36581 c 2.40822,-4.81778 0.68659,-11.33218 0.68659,-11.33218 0.43023,-3.61674 -3.18092,-0.65303 -6.47163,-0.17725 z"
         style="fill:#ffffff;fill-opacity:1;fill-rule:evenodd;stroke:none;stroke-width:1px;stroke-linecap:butt;stroke-linejoin:miter;stroke-opacity:1" />
    </g>
    <g
       id="g4416"
       inkscape:export-filename="/home/salamflamo/Pictures/kanguru-tshirt/sablon/3.png"
       inkscape:export-xdpi="108"
       inkscape:export-ydpi="108">
      <path
         style="fill:#ffffff;fill-opacity:1;fill-rule:evenodd;stroke:#ffffff;stroke-width:3;stroke-linecap:butt;stroke-linejoin:miter;stroke-miterlimit:4;stroke-dasharray:none;stroke-opacity:1"
         d="m 476.32946,765.8789 c 0,0 0.96418,-1.1305 3.11075,-1.88811 28.40825,-6.11138 65.57,-21.23776 63.38707,-53.66436 -0.35787,-8.49512 -0.13719,-17.19537 2.27285,-25.38008 4.48381,-15.13904 18.30515,-33.6998 30.80965,-39.26968 6.2949,-9.34454 11.82034,-19.117 17.80394,-28.66308 0,0 4.29315,-7.70241 4.67195,-9.59645 1.9641,-7.44081 5.73569,-14.21576 9.09138,-21.08693 l 4.04061,-7.44988 c -3.99338,-6.37785 -7.87374,-13.15731 -9.84899,-20.45559 -2.03795,-9.87812 -0.69541,-18.19364 3.283,-27.14785 l 2.98493,-6.29085 c 0,0 -1.78538,-1.09589 -4.31076,-2.98992 -2.52538,-1.89404 -7.3236,-7.70242 -8.14435,-8.83884 -0.82075,-1.13642 -5.05077,-8.27062 -5.68211,-11.55362 -0.63135,-3.28299 -1.19956,-11.55362 -1.19956,-11.55362 0,0 7.57615,-1.89403 13.63706,-0.3788 8.77791,1.9795 14.47696,7.64193 17.74081,15.9099 0.75761,2.08344 2.39911,9.40704 2.39911,9.40704 0,0 3.09359,-1.95717 6.12405,-2.65165 3.03045,-0.69448 4.98763,-1.26269 4.98763,-1.26269 -0.75173,-6.42577 -1.76692,-13.46147 0.82075,-19.63483 4.42119,-8.78386 11.36825,-11.50229 17.99334,-13.5108 6.77725,10.17653 8.71051,23.42018 0.69448,32.82996 -0.69448,1.19956 -1.19956,1.6415 -1.19956,1.6415 0,0 6.12405,1.8309 9.15451,4.92449 3.03046,3.09359 8.7757,9.28078 10.29093,10.79601 4.87534,7.85968 15.22729,9.88784 20.89753,16.41498 4.03139,4.62649 6.39906,9.2607 5.55584,15.46796 -0.90337,7.9843 -5.73202,16.42566 -11.99557,20.39245 -7.72412,4.07299 -16.58614,6.01541 -25.31694,5.05076 -1.8309,-0.25253 -8.33376,-1.07328 -8.33376,-1.07328 l 8.83883,21.84454 c 11.41453,-2.97477 23.91117,-7.83287 35.41848,-6.94479 5.58859,0.31487 10.33844,3.51065 12.56377,8.64943 0.88388,2.20971 1.45209,3.53553 1.38896,5.42957 -1.70155,8.1211 -7.85112,8.64187 -11.93243,3.8512 -1.89403,-2.33597 -2.90419,-5.80837 -2.90419,-5.80837 -9.53258,1.02123 -18.40098,4.77217 -27.71606,7.82868 l -0.31567,0.44194 c 0,0 9.34391,19.95051 9.84899,21.52888 0.50507,1.57836 3.6618,10.41719 3.6618,10.41719 0,0 7.63928,-2.14657 8.71257,-1.89403 1.07328,0.25254 1.01015,6.50286 0.69448,8.83883 -0.31568,2.33598 -2.20971,7.82869 -2.90419,8.90197 -0.69448,1.07329 -2.08344,2.65165 -2.08344,2.65165 0,0 3.59867,3.59867 4.79822,5.17703 1.19956,1.57837 3.15673,5.74525 3.09359,6.88167 -0.0631,1.13642 0.12627,1.76777 0.12627,1.76777 0,0 4.29315,3.15672 5.42957,4.86135 1.13642,1.70464 1.95717,5.17704 1.32583,6.81853 -0.63135,1.6415 -4.23002,7.26048 -4.23002,7.26048 l 1.53549,1.52913 0.5163,1.33255 c 0,0 1.2867,5.95398 1.48814,8.84602 0.20341,2.92027 -0.0338,7.74302 -4.11348,12.82333 -10.90236,11.48893 -17.94605,15.01439 -37.57846,15.48024 -3.52678,-0.44643 -8.75,-1.33929 -9.0625,-1.38393 -4.3144,1.56418 -8.60772,3.21256 -12.85714,4.95536 0,0 -0.44643,5.75893 -0.49107,6.60714 -0.0446,0.84821 0.75893,0.71429 0.75893,0.71429 0,0 15,-1.29465 17.8125,-1.29465 2.8125,0 20.625,-0.26785 20.625,-0.26785 0,0 17.05357,0.84821 19.77678,1.51785 2.72322,0.66965 7.85715,1.20536 10.625,3.92857 l 2.76786,2.72322 c 0,0 1.29464,1.78571 0.84822,3.92857 -0.44643,2.14286 -1.78572,5.53571 -4.01786,7.36607 -2.23214,1.83036 -4.50893,4.01786 -8.52679,4.82143 -4.01785,0.80357 -8.48214,1.51786 -8.97321,1.51786 -0.49107,0 -14.95536,0.22321 -14.95536,0.22321 l -10.84821,-0.84821 -1.65179,-0.13393 c 0,0 -0.49107,1.02678 -2.5,2.45536 -2.00893,1.42857 -6.96428,4.01785 -10.53571,4.46428 -3.57143,0.44643 -13.21429,1.02679 -18.70536,0.66964 -5.49107,-0.35714 -27.5,-3.52678 -27.5,-3.52678 l -27.5,-5.71429 c 0,0 -3.21429,-0.26785 -4.95536,-0.71428 -1.74107,-0.44643 -4.46428,-0.53572 -4.41964,-1.96429 0.0446,-1.42857 0.71429,-2.72321 2.00893,-4.77678 1.29464,-2.05358 4.0625,-6.875 4.375,-10.35715 0.3125,-3.48214 0.84821,-8.03571 -0.0446,-10.44643 -0.89286,-2.41071 -2.54465,-5.08928 -2.54465,-5.08928 0,0 -7.58928,9.82143 -10.98214,12.54464 -3.39286,2.72322 -14.50893,9.50893 -17.85714,10.66964 -3.34822,1.16072 -11.78572,3.97322 -16.25,4.6875 -4.46429,0.71429 -11.69643,1.20536 -17.09822,1.11608 -5.40178,-0.0893 -15.75892,-0.53572 -18.75,-1.16072 -2.99107,-0.625 -7.14285,-1.65178 -8.25892,-2.54464 -1.11608,-0.89286 -1.69643,-1.69643 -1.69643,-1.69643 z"
         id="path4621"
         inkscape:connector-curvature="0"
         sodipodi:nodetypes="ccccccccccccsssccccscccccsccccccccccccccscssscsccsscccsccccccscsscsssscccsssccscssccsssssscc" />
      <path
         style="fill:#ffffff;fill-rule:evenodd;stroke:#ffffff;stroke-width:3;stroke-linecap:butt;stroke-linejoin:miter;stroke-miterlimit:4;stroke-dasharray:none;stroke-opacity:1"
         d="m 589.1866,746.68247 c 0,0 10.89286,2.05357 14.01786,2.23214 3.125,0.17858 11.42857,0.35715 11.42857,0.35715 l 0.44643,1.60714 c 0,0 -0.80358,3.66071 -1.42858,5 -0.625,1.33929 -1.33928,2.32143 -1.33928,2.32143 0,0 -7.5,0.26786 -10.44643,0.53571 -2.94643,0.26786 -9.375,0.80357 -10.89286,1.16072 -1.51785,0.35714 -2.32143,0.35714 -2.32143,0.35714 0,0 1.60715,-2.32143 1.42858,-5.89286 -0.17858,-3.57143 -0.89286,-7.67857 -0.89286,-7.67857 z"
         id="path4623"
         inkscape:connector-curvature="0" />
      <path
         style="fill:#000000;fill-opacity:1;fill-rule:evenodd;stroke:none;stroke-width:1px;stroke-linecap:butt;stroke-linejoin:miter;stroke-opacity:1"
         d="m 596.13819,496.35225 c 0,0 -1.87501,7.64794 1.60715,12.38008 4.83993,7.09324 8.40022,8.78766 14.74483,12.14657 l 5.17857,-3.66071 c 0.34721,-4.00613 -2.14623,-13.7888 -7.09953,-17.24112 -5.78098,-3.75199 -6.22429,-3.36906 -14.43102,-3.62482 z"
         id="path4625"
         inkscape:connector-curvature="0"
         sodipodi:nodetypes="cccccc" />
      <path
         style="fill:#ffffff;fill-opacity:1;fill-rule:evenodd;stroke:none;stroke-width:1px;stroke-linecap:butt;stroke-linejoin:miter;stroke-opacity:1"
         d="m 628.78495,540.96804 c 0.0316,-0.15783 0.36759,-4.52905 5.87918,-6.1601 5.01458,-0.85695 5.72965,1.07279 8.5155,3.31905 0,0 -0.28411,0.12627 -0.0631,0 0.22097,-0.12627 0.78918,-0.12627 -0.12627,-1.32583 -0.91545,-1.19955 -2.02441,-3.45932 -4.89292,-3.7565 -3.92687,-0.59112 -9.15982,1.22343 -9.81742,5.398 -0.22097,1.8309 -0.22097,3.03046 0.0316,3.283 0.25254,0.25254 0.47351,-0.75762 0.47351,-0.75762 z"
         id="path4627"
         inkscape:connector-curvature="0"
         sodipodi:nodetypes="ccccsccccc" />
      <path
         style="fill:#ffffff;fill-opacity:1;fill-rule:evenodd;stroke:none;stroke-width:1px;stroke-linecap:butt;stroke-linejoin:miter;stroke-opacity:1"
         d="m 661.17003,527.56964 c 1.85288,-0.13935 3.24128,-0.3658 5.57765,1.27278 1.29465,0.95982 2.07953,1.89172 2.39203,1.60154 0.3125,-0.29018 0.67189,-0.59185 -0.28797,-1.32846 -0.95982,-0.7366 -2.27902,-2.12502 -4.33035,-2.54464 -4.25986,-0.7901 -8.08988,1.10765 -7.58929,5.33482 0.13393,0.91518 -0.0223,0.84822 0.40179,0.87054 0.65456,-2.77718 1.09541,-4.52006 3.83614,-5.20658 z"
         id="path4629"
         inkscape:connector-curvature="0"
         sodipodi:nodetypes="ccsccccc" />
      <path
         style="fill:#ffffff;fill-opacity:1;fill-rule:evenodd;stroke:none;stroke-width:1px;stroke-linecap:butt;stroke-linejoin:miter;stroke-opacity:1"
         d="m 683.11222,548.51262 c 5.74524,-0.56821 8.83883,0.0947 10.00682,1.95717 2.87694,6.40888 -6.24444,10.06962 -10.8907,10.25936 -3.56711,0.0631 -5.39801,-0.91545 -6.06092,-1.64149 -4.81371,-5.71198 3.906,-10.17204 6.9448,-10.57504 z"
         id="path4631"
         inkscape:connector-curvature="0"
         sodipodi:nodetypes="ccccc" />
      <path
         style="fill:#ffffff;fill-opacity:1;fill-rule:evenodd;stroke:none;stroke-width:1px;stroke-linecap:butt;stroke-linejoin:miter;stroke-opacity:1"
         d="m 651.01696,568.0664 c 0,0 2.00892,2.67857 5.44642,3.16964 3.4375,0.49107 7.36608,0.625 7.36608,0.625 0,0 1.29464,-0.0893 0.35714,0.89286 -0.9375,0.98214 -5.3125,1.11607 -6.16072,1.07143 -0.84821,-0.0446 -4.24107,-1.07143 -5.40178,-2.27679 -1.16072,-1.20535 -2.1875,-1.83035 -2.27679,-2.72321 -0.0893,-0.89286 0.13393,-1.74107 0.53572,-1.25 0.40178,0.49107 0.13393,0.49107 0.13393,0.49107 z"
         id="path4633"
         inkscape:connector-curvature="0" />
      <path
         style="fill:#ffffff;fill-opacity:1;fill-rule:evenodd;stroke:none;stroke-width:1px;stroke-linecap:butt;stroke-linejoin:miter;stroke-opacity:1"
         d="m 622.57946,604.45033 c 0,0 -4.55358,8.30357 -4.28572,11.25 0.26786,2.94643 0.71429,5.44643 0.80357,4.01786 0.0893,-1.42858 1.25,-5.71429 2.32143,-9.01786 1.07143,-3.30357 1.78572,-4.46429 2.05357,-5.44643 0.26786,-0.98214 -0.89285,-0.80357 -0.89285,-0.80357 z"
         id="path4635"
         inkscape:connector-curvature="0" />
      <path
         style="fill:#ffffff;fill-opacity:1;fill-rule:evenodd;stroke:none;stroke-width:1px;stroke-linecap:butt;stroke-linejoin:miter;stroke-opacity:1"
         d="m 635.25804,631.72712 c 0,0 -17.50001,5.49107 -23.75002,5.22321 -9.23216,-0.0174 -11.64529,-10.48503 -10.08928,-22.32143 0,0 -1.78571,0.625 -1.875,4.46429 -0.0893,3.83928 0,12.14285 2.05357,15.44642 4.85211,8.05349 11.36752,5.71582 19.55358,3.66072 4.68229,-1.24458 9.20718,-2.61853 13.92857,-5.22322 0.625,-0.44642 0.17858,-1.24999 0.17858,-1.24999 z"
         id="path4637"
         inkscape:connector-curvature="0"
         sodipodi:nodetypes="cccscccc" />
      <path
         style="fill:#ffffff;fill-opacity:1;fill-rule:evenodd;stroke:none;stroke-width:1px;stroke-linecap:butt;stroke-linejoin:miter;stroke-opacity:1"
         d="m 589.36517,653.20033 c 0,0 12.85715,1.07143 17.32143,5.71429 14.8059,12.1197 13.17976,23.95985 10.44643,37.32142 -7.5893,24.01786 -11.69644,25.17857 -11.69644,25.17857 l -7.67856,9.10715 c 22.39828,-33.4813 23.68614,-68.73196 -8.39286,-77.32143 z"
         id="path4639"
         inkscape:connector-curvature="0"
         sodipodi:nodetypes="cccccc" />
      <path
         style="fill:#ffffff;fill-opacity:1;fill-rule:evenodd;stroke:none;stroke-width:1px;stroke-linecap:butt;stroke-linejoin:miter;stroke-opacity:1"
         d="m 553.25413,690.59573 c 0,0 -5.38066,13.31177 -1.11475,23.36068 5.55982,10.935 2.13142,5.13192 12.04722,22.10106 0,0 -11.44652,-13.43247 -14.46429,-21.78571 -2.40411,-6.65463 -2.18247,-15.28318 0.13896,-19.03318 2.32143,-3.75 3.39286,-4.64285 3.39286,-4.64285 z"
         id="path4641"
         inkscape:connector-curvature="0"
         sodipodi:nodetypes="cccssc" />
      <path
         style="fill:#000000;fill-opacity:1;fill-rule:evenodd;stroke:none;stroke-width:1px;stroke-linecap:butt;stroke-linejoin:miter;stroke-opacity:1"
         d="m 587.91231,743.86494 c 0.17857,-0.35714 2.88143,-1.73604 4.22072,-2.45033 1.33928,-0.71428 12.67857,-8.03571 15.53571,-10.89285 2.85714,-2.85715 12.58929,-14.91072 16.33929,-22.5 3.75,-7.58929 8.57143,-17.14286 9.91071,-22.41072 1.33929,-5.26785 3.125,-16.69643 3.39286,-20.26785 0.26786,-3.57143 -0.71429,-21.07143 -0.71429,-21.07143 l -1.42857,-10.80357 0.26786,-1.60715 c 0,0 4.55357,-1.51785 9.82143,-2.05357 5.26785,-0.53571 8.30357,-0.89286 8.30357,-0.89286 l 0.625,6.38393 c 4.53857,5.94022 12.94354,5.20281 15.35079,-1.65178 0.22322,-2.54464 -1.95793,-8.83929 -3.47579,-10.80357 -1.51786,-1.96429 -3.75,-4.46429 -8.125,-5.35715 -4.375,-0.89285 -7.32143,-0.89285 -11.42857,-0.71428 -4.10715,0.17857 -13.83929,1.16071 -13.83929,1.16071 0,0 -1.33928,-0.44643 -1.42857,-9.19643 -0.0893,-8.75 1.78571,-19.82142 2.85714,-22.94642 1.07143,-3.125 2.73723,-4.07651 2.73723,-4.07651 l 13.42611,1.40056 8.51278,21.46556 7.63262,13.8546 14.11983,32.35578 14.375,51.87501 2.44911,2.10597 c 0,0 2.05728,11.20097 0.28952,16.12546 -8.80575,13.87126 -17.96964,19.33636 -35.86677,20.99765 -1.95717,0.25254 -10.73286,-1.4521 -11.80615,-1.8309 -1.07329,-0.37881 -13.32139,4.54568 -13.32139,4.54568 0,0 -6.50286,2.39911 -11.80616,2.96733 -5.3033,0.56821 -15.02602,0.1894 -17.17259,0.25253 -2.14657,0.0631 -15.34169,-2.27284 -15.34169,-2.27284 l -4.64209,-0.73595 z"
         id="path4643"
         inkscape:connector-curvature="0"
         sodipodi:nodetypes="cssssscccscccssscsscccccccccscscccc" />
      <path
         style="fill:#ffffff;fill-opacity:1;fill-rule:evenodd;stroke:#ffffff;stroke-width:1px;stroke-linecap:butt;stroke-linejoin:miter;stroke-opacity:1"
         d="m 662.84603,670.29914 c -4.63008,-8.42031 -9.2112,-13.73838 -19.3823,-11.99556 -4.23001,0.82074 -5.17703,2.08343 -5.17703,2.08343 0,0 0.36689,2.3119 1.70463,6.62913 1.38897,4.48256 4.04061,7.70242 5.93465,9.02824 1.89403,1.32583 7.1342,5.42957 7.1342,5.42957 -2.29413,7.36028 1.48974,13.6409 3.59867,19.00349 -1.29658,1.87356 -2.22163,3.85631 -2.96732,5.99778 l -0.50508,4.79823 c 0,0 8.39689,1.8309 8.7757,2.33598 0.37881,0.50507 1.38896,6.81853 2.71478,10.29093 1.32583,3.4724 1.70464,3.59866 1.70464,3.59866 0,0 6.43972,-2.77792 7.57614,-2.27284 1.13642,0.50508 1.4521,0.31567 1.4521,0.31567 0,0 -2.08344,-5.61897 -2.58852,-7.57614 -0.50508,-1.95717 -0.63135,-2.27284 -0.63135,-2.27284 0,0 15.08916,-1.26269 15.5311,-1.83091 0.44194,-0.56821 0,1.38896 0,3.40927 0,2.0203 -0.75761,5.68211 -0.75761,5.68211 0,0 6.43972,-0.31567 7.1342,0.25254 0.69448,0.56821 1.01015,1.19955 1.01015,1.19955 0,0 2.14657,-6.75539 1.57836,-11.17481 -0.56821,-4.41942 -1.45209,-10.29093 -1.45209,-10.29093 3.07834,-3.98705 5.95255,-7.99731 4.23001,-12.69004 -1.3105,-3.29646 -5.79305,-6.0979 -5.79305,-6.0979 0,0 -0.87203,-4.92539 -2.41444,-7.16035 -5.28372,-7.65614 -7.95495,-8.33376 -9.65958,-9.02824 -1.70463,-0.69448 -6.50286,-0.63135 -6.50286,-0.63135 0,0 0.12627,-3.91434 0.31568,-4.16688 0.1894,-0.25253 -3.4724,2.02031 -3.4724,2.02031 0,0 -1.13643,-1.13642 -1.01016,-2.71479 0.12627,-1.57836 0.25254,-2.14657 0.25254,-2.14657 0,0 -3.72494,2.77792 -3.8512,4.54569 -0.12627,1.76776 0.1894,2.84105 0.1894,2.84105 0,0 -1.89404,-3.283 -2.08344,-4.41942 -0.1894,-1.13642 -1.89404,1.13642 -1.95717,2.84106 -0.0631,1.70463 -0.12627,4.98763 -0.12627,4.98763 z"
         id="path4645"
         inkscape:connector-curvature="0"
         sodipodi:nodetypes="cccssccccsscscscsscscscccsscscscscsccc" />
      <path
         style="fill:#000000;fill-opacity:1;fill-rule:evenodd;stroke:#ffffff;stroke-width:1px;stroke-linecap:butt;stroke-linejoin:miter;stroke-opacity:1"
         d="m 659.8116,671.95033 c 0,0 -1.51786,-5.71429 -5.53572,-7.85714 -4.01785,-2.14286 -9.19642,-0.625 -10.08928,-0.26786 -1.63475,2.10979 3.23476,8.86828 4.31372,9.74746 3.21429,2.41071 6.17603,4.55357 6.17603,4.55357 0,0 0.93882,-1.53317 2.45668,-3.40817 1.51785,-1.875 2.67857,-2.76786 2.67857,-2.76786 z"
         id="path4647"
         inkscape:connector-curvature="0"
         sodipodi:nodetypes="cscccsc" />
      <path
         style="fill:#ffffff;fill-opacity:1;fill-rule:evenodd;stroke:none;stroke-width:1px;stroke-linecap:butt;stroke-linejoin:miter;stroke-opacity:1"
         d="m 664.54374,688.73604 c 0.41251,-2.79235 2.15956,-4.92892 4.46429,-5.71428 1.33928,-0.44643 2.94643,-0.35715 4.01785,0.35714 1.07143,0.71429 2.41072,2.5 2.41072,2.5 -4.07569,-2.61939 -5.20345,-1.96508 -7.14286,-0.71429 -1.69643,1.16072 -2.5,3.03572 -2.67857,3.57143 -0.17857,0.53572 -1.07143,0 -1.07143,0 z"
         id="path4649"
         inkscape:connector-curvature="0"
         sodipodi:nodetypes="ccsccsc" />
      <path
         style="fill:#ffffff;fill-opacity:1;fill-rule:evenodd;stroke:none;stroke-width:1px;stroke-linecap:butt;stroke-linejoin:miter;stroke-opacity:1"
         d="m 682.80267,682.7539 c 0,0 0.96141,-2.88778 3.0826,-3.86544 2.75897,-0.86429 4.75989,-0.0751 5.84597,3.24044 0,0 -1.82177,-2.26913 -2.80392,-2.26913 -3.18304,-0.61666 -3.71094,1.2827 -6.12465,2.89413 z"
         id="path4651"
         inkscape:connector-curvature="0"
         sodipodi:nodetypes="ccccc" />
      <path
         style="fill:#ffffff;fill-opacity:1;fill-rule:evenodd;stroke:none;stroke-width:1px;stroke-linecap:butt;stroke-linejoin:miter;stroke-opacity:1"
         d="m 672.57945,700.22042 c 1.60715,1.26116 4.05695,1.36303 6.42858,1.43973 l 0.26784,0.69197 c 0,0 -3.32398,-0.10555 -4.41965,-0.37946 -1.25,-0.3125 -3.08036,-0.80358 -3.86161,-2.23215 -0.70654,-1.29196 0.24554,-3.68304 0.24554,-3.68304 0.4701,2.10989 -0.2948,2.82684 1.3393,4.16295 z"
         id="path4653"
         inkscape:connector-curvature="0"
         sodipodi:nodetypes="cccsscc" />
      <path
         style="fill:#ffffff;fill-opacity:1;fill-rule:evenodd;stroke:none;stroke-width:1px;stroke-linecap:butt;stroke-linejoin:miter;stroke-opacity:1"
         d="m 685.23373,693.18501 c 1.4788,-3.49102 8.57132,-6.86458 10.95228,-2.21047 2.22892,5.20558 -4.81029,7.14752 -7.47648,6.27877 -2.12067,-0.99915 -4.55284,-2.16972 -3.4758,-4.0683 z"
         id="path4655"
         inkscape:connector-curvature="0"
         sodipodi:nodetypes="cccc" />
      <path
         style="fill:#000000;fill-opacity:1;fill-rule:evenodd;stroke:#ffffff;stroke-width:1px;stroke-linecap:butt;stroke-linejoin:miter;stroke-opacity:1"
         d="m 672.18994,715.62973 c 0,0 -1.26269,-3.4724 -0.63134,-5.3033 0.63134,-1.8309 0.31567,-2.71478 1.26269,-2.46225 0.94702,0.25254 5.05076,0.69448 7.26047,0.69448 2.20971,0 5.42957,-1.32582 6.25032,-1.26269 0.82075,0.0631 1.45209,0.25254 1.26269,1.76777 -0.1894,1.51523 0.37881,3.97748 0.0631,4.48255 -0.31568,0.50508 -3.53554,1.4521 -8.08123,1.6415 -4.54568,0.1894 -7.38674,0.44194 -7.38674,0.44194 z"
         id="path4657"
         inkscape:connector-curvature="0" />
      <path
         style="fill:#000000;fill-opacity:1;fill-rule:evenodd;stroke:#ffffff;stroke-width:1px;stroke-linecap:butt;stroke-linejoin:miter;stroke-opacity:1"
         d="m 652.85228,711.13186 0.83925,-5.16171 c 0,0 -7.38674,-0.63135 -12.0587,-2.20971 -4.67196,-1.57836 -7.00793,-2.14657 -6.88166,-1.6415 0.12627,0.50508 4.23001,3.91434 8.52316,5.55584 4.29315,1.6415 9.57795,3.45708 9.57795,3.45708 z"
         id="path4659"
         inkscape:connector-curvature="0"
         sodipodi:nodetypes="ccsssc" />
      <path
         style="fill:#ffffff;fill-opacity:1;fill-rule:evenodd;stroke:#ffffff;stroke-width:1.02645791px;stroke-linecap:butt;stroke-linejoin:miter;stroke-opacity:1"
         d="m 666.3231,727.56236 c 0,0 4.67924,-2.28792 6.42806,-2.47885 1.7488,-0.19092 3.11949,0.0148 2.59958,1.22671 -0.51993,1.21186 -0.85078,2.98063 -2.50506,3.91648 -1.65428,0.93587 -2.88317,0.89233 -4.58471,-0.16587 -1.70155,-1.05818 -1.93787,-2.49847 -1.93787,-2.49847 z"
         id="path4661"
         inkscape:connector-curvature="0" />
      <path
         style="fill:#ffffff;fill-opacity:1;fill-rule:evenodd;stroke:#ffffff;stroke-width:1px;stroke-linecap:butt;stroke-linejoin:miter;stroke-opacity:1"
         d="m 686.96343,723.39528 c 0,0 3.15672,-0.63135 5.61897,0.0631 2.46225,0.69448 2.48216,1.18951 1.67306,2.68323 -2.0809,2.59499 -6.02734,2.16321 -7.0395,-0.22098 -0.69448,-1.8309 -0.25253,-2.52538 -0.25253,-2.52538 z"
         id="path4663"
         inkscape:connector-curvature="0"
         sodipodi:nodetypes="cccccc" />
      <path
         style="fill:#ffffff;fill-opacity:1;fill-rule:evenodd;stroke:none;stroke-width:1px;stroke-linecap:butt;stroke-linejoin:miter;stroke-opacity:1"
         d="m 654.90088,634.89676 c 0,0 5.26786,-3.30357 8.125,-3.79465 2.85715,-0.49107 5.35715,-0.89285 5.98215,-0.3125 0.625,0.58036 0.75892,3.34822 0.0893,5.625 -1.59112,5.24777 -10.09699,5.06752 -13.39286,1.51786 -1.20536,-1.42857 -1.51786,-2.58928 -1.51786,-2.58928 z"
         id="path4665"
         inkscape:connector-curvature="0"
         sodipodi:nodetypes="csscccc" />
      <path
         style="fill:#ffffff;fill-opacity:1;fill-rule:evenodd;stroke:none;stroke-width:1px;stroke-linecap:butt;stroke-linejoin:miter;stroke-opacity:1"
         d="m 698.02588,615.96819 c 0.0893,-0.40179 3.57143,-3.88393 5.53572,-4.33036 1.96428,-0.44643 5.49107,-0.75893 5.9375,-0.53572 0.44643,0.22322 1.74107,3.97322 0.22321,5.80358 -1.51785,1.83035 -1.96428,3.21428 -3.70535,3.30357 -1.74108,0.0893 -5.66965,-0.71429 -6.69643,-1.60715 -1.02679,-0.89285 -1.875,-2.27678 -1.875,-2.27678 z"
         id="path4667"
         inkscape:connector-curvature="0" />
      <path
         style="fill:#ffffff;fill-opacity:1;fill-rule:evenodd;stroke:#ffffff;stroke-width:1px;stroke-linecap:butt;stroke-linejoin:miter;stroke-opacity:1"
         d="m 682.04988,651.07494 c 0,0 -3.11089,0.25768 -5.19433,2.90933 -2.08343,2.65165 -4.88564,8.04873 -4.88564,8.86948 0,0.82075 -0.0785,2.10958 -0.0785,2.10958 l 3.58149,-2.05093 -0.12627,3.09359 -0.25254,1.32582 c 0,0 4.98763,-0.0631 6.7554,0.63135 1.76777,0.69448 4.52216,2.36661 4.52216,2.36661 0,0 2.53807,-4.50235 3.23255,-8.03789 0.69448,-3.53553 0.79778,-8.71442 0.62752,-10.47901 0.0102,-3.80201 -4.47742,-1.57787 -8.18188,-0.73793 z"
         id="path4669"
         inkscape:connector-curvature="0"
         sodipodi:nodetypes="cssccccccsccc" />
      <path
         style="fill:#ffffff;fill-opacity:1;fill-rule:evenodd;stroke:none;stroke-width:1px;stroke-linecap:butt;stroke-linejoin:miter;stroke-opacity:1"
         d="m 612.07722,759.67354 1.18032,-0.11992 c 4.05294,-0.41177 6.08844,-2.6027 21.44166,-0.98638 9.9892,1.05162 19.08206,1.08689 22.2291,3.84482 2.36383,2.58387 4.7583,7.9311 2.79402,11.32396 -1.96429,3.39286 -0.80358,2.94643 -0.80358,2.94643 l 2.00893,0.3125 c 0,0 0.71428,-1.47321 1.20535,-2.36607 0.49107,-0.89286 0.99667,-2.57957 0.84822,-4.73214 -0.17858,-2.58929 -1.60714,-5.80357 -3.66071,-8.48214 -2.46686,-2.85873 -8.82059,-3.19152 -14.24108,-4.01786 -10.66964,-1.02678 -19.40324,-1.62967 -24.88641,-1.21937 -6.56251,0.49107 -7.99239,1.34378 -8.17097,1.38842 -0.52909,1.09582 -0.78775,1.34146 0.0551,2.10775 z"
         id="path4671"
         inkscape:connector-curvature="0"
         sodipodi:nodetypes="csscsccssccsccc" />
      <path
         style="fill:#ffffff;fill-opacity:1;fill-rule:evenodd;stroke:none;stroke-width:1px;stroke-linecap:butt;stroke-linejoin:miter;stroke-opacity:1"
         d="m 634.57755,512.35232 c 2.35175,-0.7734 4.90354,-0.98476 9.80163,-0.17362 l 4.82214,0.97699 1.30191,-1.13483 c -2.08342,-0.94788 -12.79474,-3.05221 -15.63939,-0.89679 -0.31307,0.23722 -0.16234,0.88627 -0.28629,1.22825 z"
         id="path4673"
         inkscape:connector-curvature="0"
         sodipodi:nodetypes="csccsc" />
      <text
         xml:space="preserve"
         style="font-style:normal;font-weight:normal;font-size:98.34262085px;line-height:125%;font-family:sans-serif;letter-spacing:0px;word-spacing:0px;fill:#ffffff;fill-opacity:1;stroke:#ffffff;stroke-width:3;stroke-linecap:butt;stroke-linejoin:miter;stroke-miterlimit:4;stroke-dasharray:none;stroke-opacity:1"
         x="412.50259"
         y="827.79877"
         id="text4675"
         sodipodi:linespacing="125%"><tspan
           sodipodi:role="line"
           id="tspan4677"
           x="412.50259"
           y="827.79877"
           style="font-style:normal;font-variant:normal;font-weight:normal;font-stretch:normal;font-family:'Birthday Boy';-inkscape-font-specification:'Birthday Boy';fill:#ffffff;fill-opacity:1;stroke:#ffffff;stroke-width:3;stroke-miterlimit:4;stroke-dasharray:none;stroke-opacity:1">Kanguru</tspan></text>
      <path
         sodipodi:nodetypes="cssccccccscc"
         inkscape:connector-curvature="0"
         id="path4679"
         d="m 683.18215,651.50354 c 0,0 -2.20501,0.15066 -4.29751,2.49178 -2.09251,2.34114 -5.10999,7.23181 -5.20102,8.01274 -0.0911,0.78095 -0.30176,2.00041 -0.30176,2.00041 l 3.31892,-1.63878 -0.45219,2.93252 -0.36506,1.23946 c 0,0 4.31213,0.37542 5.76095,1.1905 1.44882,0.81513 3.64081,2.64661 3.64081,2.64661 l 3.6819,-7.36581 c 2.40822,-4.81778 0.68659,-11.33218 0.68659,-11.33218 0.43023,-3.61674 -3.18092,-0.65303 -6.47163,-0.17725 z"
         style="fill:#000000;fill-opacity:1;fill-rule:evenodd;stroke:none;stroke-width:1px;stroke-linecap:butt;stroke-linejoin:miter;stroke-opacity:1" />
    </g>
    <rect
       style="opacity:1;fill:none;fill-opacity:1;stroke:#000000;stroke-width:1;stroke-miterlimit:4;stroke-dasharray:none;stroke-opacity:1"
       id="rect4745"
       width="383.85797"
       height="430.32498"
       x="-42.426407"
       y="-20.419798"
       rx="4.4175801"
       ry="4.2426"
       inkscape:export-filename="/home/salamflamo/Pictures/kanguru-tshirt/sablon/sablonfull.png"
       inkscape:export-xdpi="108"
       inkscape:export-ydpi="108" />
    <rect
       ry="4.2426"
       rx="4.4175801"
       y="-20.419798"
       x="369.5737"
       height="430.32498"
       width="383.85797"
       id="rect4747"
       style="opacity:1;fill:none;fill-opacity:1;stroke:#000000;stroke-width:1;stroke-miterlimit:4;stroke-dasharray:none;stroke-opacity:1"
       inkscape:export-filename="/home/salamflamo/Pictures/kanguru-tshirt/sablon/1.png"
       inkscape:export-xdpi="108"
       inkscape:export-ydpi="108" />
    <rect
       ry="4.2426"
       rx="4.4175801"
       y="446.86313"
       x="-43.440674"
       height="430.32498"
       width="383.85797"
       id="rect4749"
       style="opacity:1;fill:none;fill-opacity:1;stroke:#000000;stroke-width:1;stroke-miterlimit:4;stroke-dasharray:none;stroke-opacity:1"
       inkscape:export-filename="/home/salamflamo/Pictures/kanguru-tshirt/sablon/2.png"
       inkscape:export-xdpi="108"
       inkscape:export-ydpi="108" />
    <rect
       style="opacity:1;fill:none;fill-opacity:1;stroke:#000000;stroke-width:1;stroke-miterlimit:4;stroke-dasharray:none;stroke-opacity:1"
       id="rect4751"
       width="383.85797"
       height="430.32498"
       x="369.5737"
       y="448.29099"
       rx="4.4175801"
       ry="4.2426"
       inkscape:export-filename="/home/salamflamo/Pictures/kanguru-tshirt/sablon/3.png"
       inkscape:export-xdpi="108"
       inkscape:export-ydpi="108" />
    <rect
       style="opacity:1;fill:none;fill-opacity:1;stroke:#ececec;stroke-width:0.74419457;stroke-miterlimit:4;stroke-dasharray:none;stroke-opacity:1"
       id="rect4753"
       width="852.82458"
       height="957.88031"
       x="-68.818275"
       y="-50.852272"
       rx="2.9412904"
       ry="3.5289991"
       inkscape:export-filename="/home/salamflamo/Pictures/kanguru-tshirt/sablon/sablonfull.png"
       inkscape:export-xdpi="108"
       inkscape:export-ydpi="108" />
  </g>
</svg>
